<svg width="3836" height="979" xmlns="http://www.w3.org/2000/svg" xmlns:xlink="http://www.w3.org/1999/xlink" overflow="hidden"><defs><clipPath id="clip0"><rect x="280" y="389" width="3836" height="979"/></clipPath><clipPath id="clip1"><rect x="280" y="389" width="750" height="980"/></clipPath><clipPath id="clip2"><rect x="280" y="389" width="750" height="980"/></clipPath><clipPath id="clip3"><rect x="280" y="389" width="750" height="980"/></clipPath><linearGradient x1="359.209" y1="324.748" x2="763.34" y2="547.932" gradientUnits="userSpaceOnUse" spreadMethod="pad" id="fill4"><stop offset="0" stop-color="#5EB25B"/><stop offset="1" stop-color="#25978D"/></linearGradient><linearGradient x1="371.041" y1="303.266" x2="775.2" y2="526.478" gradientUnits="userSpaceOnUse" spreadMethod="pad" id="fill5"><stop offset="0" stop-color="#5EB25B"/><stop offset="1" stop-color="#25978D"/></linearGradient><linearGradient x1="2677.59" y1="307.169" x2="2955.83" y2="1449.39" gradientUnits="userSpaceOnUse" spreadMethod="reflect" id="fill6"><stop offset="0" stop-color="#25978D"/><stop offset="0.0125" stop-color="#24968C"/><stop offset="0.025" stop-color="#24968C"/><stop offset="0.0375" stop-color="#24968C"/><stop offset="0.05" stop-color="#24968C"/><stop offset="0.0625" stop-color="#24968C"/><stop offset="0.075" stop-color="#24968C"/><stop offset="0.0875" stop-color="#24968C"/><stop offset="0.1" stop-color="#24958C"/><stop offset="0.1125" stop-color="#24958C"/><stop offset="0.125" stop-color="#24958C"/><stop offset="0.1375" stop-color="#24958C"/><stop offset="0.15" stop-color="#24948B"/><stop offset="0.1625" stop-color="#24948B"/><stop offset="0.175" stop-color="#24938B"/><stop offset="0.1875" stop-color="#24938B"/><stop offset="0.2" stop-color="#24938B"/><stop offset="0.2125" stop-color="#24928A"/><stop offset="0.225" stop-color="#24928A"/><stop offset="0.2375" stop-color="#23918A"/><stop offset="0.25" stop-color="#23908A"/><stop offset="0.2625" stop-color="#239089"/><stop offset="0.275" stop-color="#238F89"/><stop offset="0.2875" stop-color="#238F89"/><stop offset="0.3" stop-color="#238E89"/><stop offset="0.3125" stop-color="#238D88"/><stop offset="0.325" stop-color="#238D88"/><stop offset="0.3375" stop-color="#228C88"/><stop offset="0.35" stop-color="#228B87"/><stop offset="0.3625" stop-color="#228A87"/><stop offset="0.375" stop-color="#228A86"/><stop offset="0.3875" stop-color="#228986"/><stop offset="0.4" stop-color="#228886"/><stop offset="0.4125" stop-color="#218785"/><stop offset="0.425" stop-color="#218685"/><stop offset="0.4375" stop-color="#218584"/><stop offset="0.45" stop-color="#218484"/><stop offset="0.4625" stop-color="#218384"/><stop offset="0.475" stop-color="#218283"/><stop offset="0.4875" stop-color="#208183"/><stop offset="0.5" stop-color="#208082"/><stop offset="0.5125" stop-color="#207F82"/><stop offset="0.525" stop-color="#207E81"/><stop offset="0.5375" stop-color="#207D81"/><stop offset="0.55" stop-color="#1F7C80"/><stop offset="0.5625" stop-color="#1F7B80"/><stop offset="0.575" stop-color="#1F7A7F"/><stop offset="0.5875" stop-color="#1F797E"/><stop offset="0.6" stop-color="#1E777E"/><stop offset="0.6125" stop-color="#1E767D"/><stop offset="0.625" stop-color="#1E757D"/><stop offset="0.6375" stop-color="#1E747C"/><stop offset="0.65" stop-color="#1D727C"/><stop offset="0.6625" stop-color="#1D717B"/><stop offset="0.675" stop-color="#1D707A"/><stop offset="0.6875" stop-color="#1D6E7A"/><stop offset="0.7" stop-color="#1C6D79"/><stop offset="0.7125" stop-color="#1C6C78"/><stop offset="0.725" stop-color="#1C6A78"/><stop offset="0.7375" stop-color="#1B6977"/><stop offset="0.75" stop-color="#1B6776"/><stop offset="0.7625" stop-color="#1B6676"/><stop offset="0.775" stop-color="#1B6475"/><stop offset="0.7875" stop-color="#1A6374"/><stop offset="0.8" stop-color="#1A6173"/><stop offset="0.8125" stop-color="#1A6073"/><stop offset="0.825" stop-color="#195E72"/><stop offset="0.8375" stop-color="#195C71"/><stop offset="0.85" stop-color="#195B70"/><stop offset="0.8625" stop-color="#185970"/><stop offset="0.875" stop-color="#18576F"/><stop offset="0.8875" stop-color="#18566E"/><stop offset="0.9" stop-color="#17546D"/><stop offset="0.9125" stop-color="#17526C"/><stop offset="0.925" stop-color="#17516C"/><stop offset="0.9375" stop-color="#164F6B"/><stop offset="0.95" stop-color="#164D6A"/><stop offset="0.9625" stop-color="#164B69"/><stop offset="0.975" stop-color="#154968"/><stop offset="0.9875" stop-color="#154767"/><stop offset="1" stop-color="#154667"/></linearGradient></defs><g clip-path="url(#clip0)" transform="translate(-280 -389)"><g clip-path="url(#clip1)"><g clip-path="url(#clip2)"><g clip-path="url(#clip3)"><path d="M1050.72 626.084C1050.8 604.015 1037.03 584.264 1016.29 576.715 929.253 545.795 834.611 543.521 746.194 570.226 742.004 571.543 737.464 569.747 735.313 565.918L735.313 565.918C733.299 561.638 731.145 556.967 728.823 551.932 726.502 546.897 724.376 541.443 722.138 535.709 719.901 529.975 717.579 523.849 715.593 517.276 713.607 510.702 711.201 504.017 709.383 496.856 707.565 489.696 705.439 482.283 703.789 474.479 702.139 466.675 700.237 458.871 698.838 450.732 697.44 442.592 695.845 434.172 694.586 425.557 689.322 389.65 686.108 353.469 684.964 317.196 684.461 302.819 684.181 288.385 684.181 274.064 684.181 214.737 687.733 157.591 692.069 112.781 697.076 60.5581 702.726 24.8666 703.453 20.6429 702.894 24.9225 698.307 60.726 694.894 112.949 691.901 157.703 690.027 214.625 691.901 273.728 692.349 288.218 693.076 302.875 694.027 317.532 696.262 353.741 700.578 389.787 706.95 425.501 708.46 434.061 710.055 442.284 711.957 450.508 713.859 458.731 715.565 466.479 717.551 474.088 719.537 481.696 721.607 489.108 723.901 496.213 724.516 498.479 725.215 500.717 725.942 502.87 727.618 507.995 733.131 510.789 738.255 509.114 738.664 508.979 739.064 508.82 739.453 508.632 847.366 457.668 865.856 384.243 849.129 307.546 832.793 232.554 782.808 154.318 749.886 90.6554 735.763 63.687 723.839 35.6247 714.222 6.74111 712.413 1.40117 706.614-1.45983 701.274 0.35089 699.305 1.01882 697.588 2.27243 696.349 3.94397 662.391 49.0619 569.638 181.814 554.478 304.441 543.541 392.971 573.079 476.214 694.335 517.36L694.559 517.611C696.586 526.143 699.109 534.548 702.111 542.786 704.237 548.995 706.111 554.925 708.516 560.324L714.894 575.54C715.677 577.107 716.46 578.589 717.187 580.155 710.726 582.589 704.349 585.33 698.027 588.099 643.41 563.943 584.323 551.555 524.604 551.736 475.302 551.703 426.357 560.131 379.908 576.659 359.142 584.217 345.349 603.987 345.419 626.084L345.419 626.56C345.405 639.645 346.152 652.722 347.657 665.72 348.854 664.632 350.177 663.692 351.601 662.923 434.097 618.311 530.618 607.229 621.078 631.986 619.176 633.329 617.357 634.784 615.483 636.154 613.05 638 610.532 639.818 608.155 641.748 605.106 644.126 602.113 646.532 599.148 648.965 596.826 650.923 594.449 652.797 592.155 654.727L583.372 662.503C581.218 664.517 579.009 666.447 576.827 668.517 573.834 671.314 570.953 674.111 568.044 677.132 565.778 679.398 563.456 681.608 561.219 684.013L561.219 684.013C558.589 683.678 555.96 683.398 553.247 683.174L552.352 683.174C548.268 682.783 544.212 682.559 540.044 682.335L537.023 682.167C532.94 681.999 528.632 681.887 524.604 681.887 520.576 681.887 515.709 682.055 511.262 682.223 509.891 682.223 508.465 682.419 507.066 682.447 504.129 682.447 501.22 682.755 498.311 683.062L493.332 683.566C490.171 683.901 487.038 684.293 483.878 684.685 482.255 684.964 480.549 685.076 478.843 685.496 475.067 686.447 471.179 686.782 467.319 687.398 466.619 687.398 465.92 687.678 465.165 687.845 461.557 688.573 458.004 689.356 454.452 690.167 452.997 690.503 451.655 690.922 450.172 691.258L442.872 693.16C440.998 693.775 439.095 694.251 437.277 694.838 434.172 695.789 431.124 696.796 428.075 697.831L424.802 698.894C420.746 700.349 416.746 701.831 412.746 703.453 411.739 703.845 410.788 704.293 409.949 704.684 406.872 705.943 403.823 707.286 400.831 708.6L397.11 710.334 388.719 714.446 384.775 716.488C381.726 718.11 378.677 719.845 375.628 721.551 374.901 721.998 374.118 722.39 373.391 722.838L373.391 722.838C366.073 727.05 362.815 735.889 365.643 743.844 371.707 761.075 379.125 777.796 387.824 793.857 388.126 793.58 388.445 793.317 388.775 793.074L388.775 793.074C389.189 792.763 389.617 792.472 390.062 792.207 392.383 790.528 394.733 788.934 397.11 787.312L399.908 785.522C401.921 784.263 403.907 783.032 405.921 781.857 406.844 781.27 407.851 780.71 408.858 780.095 411.124 778.753 413.474 777.494 415.851 776.263 416.467 775.927 417.082 775.536 417.697 775.256 420.634 773.718 423.627 772.263 426.676 770.809L429.194 769.718C431.403 768.711 433.669 767.704 436.019 766.753L437.557 766.137C439.711 765.27 443.151 763.844 445.445 763.089L448.69 761.942C451.85 760.879 455.067 759.816 458.284 758.865L459.123 758.585C462.06 757.774 464.997 756.935 467.99 756.208 469.053 755.928 470.06 755.704 471.123 755.48 473.444 754.921 475.766 754.445 478.116 753.942 479.234 753.718 480.269 753.494 481.388 753.326 483.99 752.823 486.675 752.375 489.276 751.928L493.947 751.229C496.465 750.837 499.01 750.557 501.556 750.389L504.045 750.222C505.835 750.054 507.653 749.942 509.444 749.83 506.814 753.83 504.325 757.942 501.891 762.054 500.996 763.536 500.157 765.047 499.234 766.529 496.828 770.277 494.624 774.154 492.633 778.137L491.15 781.13C488.353 786.277 485.808 791.508 483.29 796.822 482.843 797.801 482.339 798.808 481.836 799.871 479.402 805.074 477.053 810.416 474.787 815.815 474.395 816.85 473.948 817.857 473.556 818.919 471.235 824.514 468.997 830.108 466.955 835.842 465.389 840.234 463.906 844.625 462.452 849.017 462.004 850.415 461.612 851.814 461.165 853.129 460.242 856.177 459.291 859.226 458.368 862.331 457.864 864.009 457.417 865.744 456.969 867.394L453.333 880.429C471.503 897.997 491.517 913.555 513.024 926.833L513.024 926.609C513.416 924.092 513.807 921.547 514.227 919.057 514.506 917.659 514.758 916.26 514.926 914.889 515.136 912.081 515.69 909.309 516.576 906.638 516.8 906.023 516.856 905.407 517.024 904.764 517.807 901.211 518.618 897.659 519.513 894.107 519.793 893.044 520.073 892.009 520.352 890.89 521.024 888.4 521.667 885.883 522.338 883.394 522.73 882.163 523.066 880.96 523.401 879.729 524.129 877.296 524.912 874.834 525.667 872.401 526.003 871.282 526.338 870.163 526.674 869.128 527.849 865.632 529.024 862.163 530.226 858.723 532.184 853.408 534.226 848.066 536.408 842.863 551.622 806.134 572.821 772.179 599.148 742.39 603.148 737.83 607.26 733.383 611.427 729.047 636.49 703.244 665.264 681.325 696.796 664.014 699.006 662.783 701.356 661.692 703.565 660.517 706.67 658.895 709.691 657.245 712.852 655.734 819.009 604.183 943.594 607.439 1046.91 664.461 1047.46 664.744 1047.97 665.082 1048.45 665.468 1049.91 652.579 1050.64 639.617 1050.63 626.644ZM1022.89 722.642C1022.05 722.194 1021.21 721.747 1020.4 721.243 1017.43 719.537 1014.44 717.915 1011.45 716.292 1010.16 715.593 1008.85 714.95 1007.56 714.306 1004.9 712.964 1000.51 710.838 997.825 709.551L995.391 708.404C992.398 707.09 989.349 705.747 986.273 704.488L983.475 703.258C979.476 701.635 975.42 700.153 971.364 698.698L968.147 697.635C965.098 696.6 961.993 695.593 958.944 694.642L954.581 693.356C951.784 692.461 948.763 691.705 945.826 691.006L941.714 689.971C938.162 689.16 934.553 688.377 930.945 687.65 930.274 687.482 929.63 687.314 928.959 687.202 924.931 686.531 920.819 686.167 916.847 685.216 915.365 684.852 913.799 684.768 912.288 684.489 909.127 684.097 905.995 683.706 902.834 683.37L898.19 682.922C895.393 682.587 892.372 682.363 889.435 682.279 887.897 682.279 886.443 682.111 884.904 682.027 880.457 681.859 876.009 681.692 871.562 681.692 852.989 681.675 834.455 683.406 816.206 686.866 714.021 706.122 629.058 776.853 591.596 873.855 590.057 877.799 588.659 881.799 587.316 885.799 586.896 887.086 586.505 888.373 586.057 889.631 585.162 892.428 584.323 895.226 583.484 898.023 583.064 899.533 582.673 900.96 582.281 902.47 581.498 905.127 580.827 907.869 580.155 910.582 579.82 912.008 579.428 913.379 579.12 914.917 578.449 918.022 577.778 921.183 577.162 924.344 576.939 925.295 576.715 926.302 576.547 927.281 575.764 931.393 575.121 935.672 574.561 939.728 574.393 940.791 574.281 941.854 574.169 942.945 573.61 947.28 573.079 951.728 572.687 955.979L572.687 956.119C593.517 964.06 615.061 969.979 637.021 973.797L639.343 971.727C639.343 969.182 639.511 966.637 639.679 964.175 639.846 962.497 639.902 960.902 640.07 959.224 640.238 957.546 640.518 955.448 640.742 953.63 640.965 951.812 641.049 950.385 641.273 948.791 641.497 947.196 641.888 945.015 642.224 943.197 642.56 941.378 642.727 940.092 643.007 938.553 643.287 937.015 643.79 934.665 644.238 932.763 644.685 930.861 644.825 929.77 645.161 928.26 645.664 926.274 646.168 924.316 646.727 922.33 647.063 920.931 647.399 919.533 647.79 918.162 648.462 915.924 649.105 913.771 649.832 911.561 650.168 910.442 650.504 909.267 650.895 908.12 652.014 904.82 653.161 901.491 654.448 898.218 688.964 808.357 775.329 749.094 871.59 749.215 875.142 749.215 878.722 749.215 882.219 749.438L885.659 749.662C888.037 749.83 890.414 749.942 892.82 750.166 894.163 750.166 895.617 750.445 896.82 750.613 898.974 750.809 901.156 751.089 903.309 751.368 904.708 751.536 906.106 751.76 907.477 751.984 909.575 752.32 911.701 752.655 913.854 753.047L917.854 753.83C920.092 754.278 922.302 754.753 924.484 755.257L928.092 756.096C930.889 756.767 933.462 757.55 936.148 758.277L938.134 758.809C941.462 759.816 944.735 760.879 948.008 762.054 948.959 762.305 949.854 762.697 950.805 763.033 953.126 763.872 955.476 764.767 957.798 765.662L961.35 767.144C963.336 767.984 965.406 768.879 967.392 769.774 968.623 770.305 969.853 770.92 971.112 771.48L976.846 774.277C978.077 774.948 979.28 775.564 980.51 776.179 982.468 777.242 984.398 778.277 986.3 779.396 987.447 780.011 988.566 780.683 989.685 781.298 991.839 782.557 993.965 783.899 996.118 785.27 996.902 785.773 997.741 786.277 998.552 786.836 1001.52 788.738 1004.4 790.724 1007.22 792.738 1007.73 793.102 1008.17 793.493 1008.68 793.829 1017.37 777.81 1024.78 761.122 1030.83 743.928 1033.65 735.948 1030.41 727.086 1023.11 722.81ZM972.539 844.094C971.755 843.478 970.972 842.919 970.217 842.388 968.147 840.933 966.105 839.59 963.979 838.164 963.364 837.772 962.888 837.381 962.273 837.045 959.644 835.367 956.93 833.828 954.217 832.262L952.259 831.255C950.049 830.108 947.868 828.933 945.658 827.87 944.763 827.423 943.952 827.059 943.057 826.668 940.539 825.493 938.05 824.43 935.504 823.395L933.49 822.528C931.225 821.549 927.001 820.15 924.623 819.423L923.057 818.947C920.736 818.22 918.386 817.493 916.008 816.878 915.113 816.598 914.218 816.374 913.211 816.15 910.106 815.395 907.002 814.668 903.897 814.052 893.184 812.002 882.303 810.962 871.394 810.948 778.157 810.936 702.175 885.771 700.768 979 723.526 978.888 746.216 976.547 768.515 972.007 768.515 970.72 768.795 969.49 768.963 968.231 768.963 967.895 768.963 967.56 768.963 967.224 769.354 964.427 769.858 961.63 770.473 959.056 770.543 958.651 770.635 958.248 770.753 957.854 771.34 955.224 772.067 952.623 772.906 950.022 772.906 949.63 773.186 949.182 773.298 948.735 774.193 946.189 775.116 943.672 776.095 941.183 776.263 940.791 776.431 940.399 776.599 939.952 777.718 937.518 778.864 935.057 780.207 932.679 780.375 932.288 780.599 931.952 780.766 931.616 782.109 929.183 783.564 926.805 785.102 924.512L785.661 923.672C787.256 921.295 788.99 919.029 790.752 916.736 790.752 916.568 791.032 916.456 791.144 916.288 793.102 913.966 795.088 911.701 797.214 909.519 821.549 884.582 856.798 873.567 891.002 880.205 893.833 880.72 896.633 881.383 899.393 882.191L900.904 882.582C903.561 883.366 906.106 884.261 908.68 885.38 909.183 885.547 909.603 885.771 910.106 885.939 912.736 887.002 915.281 888.177 917.826 889.379L918.722 889.883C921.323 891.282 923.952 892.68 926.498 894.331L926.498 894.331C926.654 894.409 926.789 894.523 926.889 894.666 944.304 879.791 960.231 863.257 974.441 845.297 973.722 845.042 973.042 844.684 972.427 844.234Z" fill="url(#fill4)" transform="matrix(1.00049 0 0 1 -21.343 389)"/><path d="M641.72 532.884C644.929 532.019 646.825 528.719 645.964 525.513 645.516 523.852 644.378 522.461 642.839 521.695 587.512 493.444 551.792 452.438 536.548 399.236 534.279 391.055 532.514 382.739 531.261 374.342 484.185 360.356 438.368 349.839 401.642 342.594 353.335 332.916 320.72 328.608 320.72 328.608 320.72 328.608 353.503 331.405 402.229 339.182 438.34 344.776 483.346 353.167 529.891 364.859 526.923 334.521 528.716 303.904 535.205 274.12 536.106 269.968 533.471 265.872 529.32 264.972 528.663 264.829 527.989 264.773 527.317 264.806 435.012 270.68 340.748 305.84 306.063 319.993 302.156 321.576 300.27 326.029 301.854 329.937 302.455 331.422 303.507 332.678 304.861 333.531 327.996 348.608 349.825 365.598 370.118 384.327 444.074 451.767 539.317 563.736 641.72 532.884Z" fill="url(#fill5)" transform="matrix(1.00049 0 0 1 -21.343 389)"/></g></g></g><path d="M1309 411.5C1309 399.074 1319.07 389 1331.5 389L1331.5 389C1343.93 389 1354 399.074 1354 411.5L1354 1345.5C1354 1357.93 1343.93 1368 1331.5 1368L1331.5 1368C1319.07 1368 1309 1357.93 1309 1345.5Z" fill="#25978D" fill-rule="evenodd"/><path d="M3905.32 832.978C3880.71 832.978 3860.7 841.592 3845.27 858.818 3829.85 876.045 3822.14 900.654 3822.14 932.646 3822.14 967.263 3830.43 993.39 3847 1011.03 3863.57 1028.66 3883.5 1037.48 3906.8 1037.48 3930.26 1037.48 3949.21 1028.17 3963.65 1009.55 3978.08 990.929 3985.3 966.853 3985.3 937.322 3985.3 904.017 3977.51 878.301 3961.92 860.172 3946.34 842.043 3927.47 832.978 3905.32 832.978ZM3588.32 832.978C3563.71 832.978 3543.7 841.592 3528.27 858.818 3512.85 876.045 3505.14 900.654 3505.14 932.646 3505.14 967.263 3513.43 993.39 3530 1011.03 3546.57 1028.66 3566.5 1037.48 3589.8 1037.48 3613.26 1037.48 3632.21 1028.17 3646.65 1009.55 3661.08 990.929 3668.3 966.853 3668.3 937.322 3668.3 904.017 3660.51 878.301 3644.92 860.172 3629.34 842.043 3610.47 832.978 3588.32 832.978ZM3799.99 798.771C3814.1 798.771 3821.16 808.615 3821.16 828.303L3821.16 844.053C3844.78 813.865 3875.63 798.771 3913.69 798.771 3951.42 798.771 3980.26 812.183 4000.19 839.008 4020.12 865.832 4030.09 898.767 4030.09 937.814 4030.09 976.369 4020.16 1008.36 4000.31 1033.79 3980.46 1059.22 3951.91 1071.94 3914.67 1071.94 3876.45 1071.94 3845.77 1056.76 3822.63 1026.41L3822.63 1134.94C3822.63 1150.19 3820.79 1160.12 3817.1 1164.71 3813.4 1169.31 3808.03 1171.6 3800.98 1171.6 3794.74 1171.6 3789.49 1169.68 3785.23 1165.82 3780.96 1161.96 3778.83 1151.83 3778.83 1135.43L3778.83 833.471C3778.83 819.197 3780.55 809.846 3784 805.416 3787.44 800.986 3792.77 798.771 3799.99 798.771ZM3482.99 798.771C3497.1 798.771 3504.16 808.615 3504.16 828.303L3504.16 844.053C3527.78 813.865 3558.63 798.771 3596.69 798.771 3634.42 798.771 3663.26 812.183 3683.19 839.008 3703.12 865.832 3713.09 898.767 3713.09 937.814 3713.09 976.369 3703.16 1008.36 3683.31 1033.79 3663.46 1059.22 3634.91 1071.94 3597.67 1071.94 3559.45 1071.94 3528.77 1056.76 3505.63 1026.41L3505.63 1134.94C3505.63 1150.19 3503.79 1160.12 3500.1 1164.71 3496.4 1169.31 3491.03 1171.6 3483.98 1171.6 3477.74 1171.6 3472.49 1169.68 3468.23 1165.82 3463.96 1161.96 3461.83 1151.83 3461.83 1135.43L3461.83 833.471C3461.83 819.197 3463.55 809.846 3467 805.416 3470.44 800.986 3475.77 798.771 3482.99 798.771ZM3357.95 798.771C3366.48 798.771 3372.22 801.314 3375.17 806.4 3378.13 811.486 3379.6 820.838 3379.6 834.455L3379.6 1036.01C3379.6 1049.62 3377.8 1059.02 3374.19 1064.18 3370.58 1069.35 3365 1071.94 3357.45 1071.94 3350.73 1071.94 3345.35 1069.72 3341.33 1065.29 3337.31 1060.86 3335.31 1051.1 3335.31 1036.01L3335.31 834.455C3335.31 818.049 3337.73 808 3342.57 804.308 3347.4 800.617 3352.53 798.771 3357.95 798.771ZM3158.99 798.771C3164.08 798.771 3168.43 800.289 3172.04 803.324 3175.65 806.359 3177.45 814.029 3177.45 826.334L3177.45 846.513C3189.59 827.154 3200.17 814.357 3209.2 808.123 3218.22 801.888 3228.8 798.771 3240.94 798.771 3253.74 798.771 3265.59 801.642 3276.5 807.385 3287.41 813.127 3292.87 820.099 3292.87 828.303 3292.87 834.045 3290.9 838.844 3286.96 842.699 3283.02 846.555 3279.17 848.482 3275.4 848.482 3272.11 848.482 3267.03 847.252 3260.14 844.791 3253.25 842.33 3246.19 841.099 3238.97 841.099 3220.27 841.099 3206.37 849.467 3197.26 866.201 3188.16 882.935 3183.6 911.482 3183.6 951.842L3183.6 1046.59C3183.6 1063.49 3176.38 1071.94 3161.95 1071.94 3153.74 1071.94 3148 1069.47 3144.72 1064.55 3141.44 1059.63 3139.8 1050.11 3139.8 1036.01L3139.8 826.334C3139.8 815.178 3141.4 807.795 3144.6 804.185 3147.8 800.576 3152.59 798.771 3158.99 798.771ZM2659.95 798.771C2668.48 798.771 2674.22 801.314 2677.17 806.4 2680.13 811.486 2681.6 820.838 2681.6 834.455L2681.6 1036.01C2681.6 1049.62 2679.8 1059.02 2676.19 1064.18 2672.58 1069.35 2667 1071.94 2659.45 1071.94 2652.73 1071.94 2647.35 1069.72 2643.33 1065.29 2639.31 1060.86 2637.31 1051.1 2637.31 1036.01L2637.31 834.455C2637.31 818.049 2639.73 808 2644.56 804.308 2649.4 800.617 2654.53 798.771 2659.95 798.771ZM2460.99 798.771C2466.08 798.771 2470.43 800.289 2474.04 803.324 2477.65 806.359 2479.45 814.029 2479.45 826.334L2479.45 846.513C2491.59 827.154 2502.17 814.357 2511.2 808.123 2520.22 801.888 2530.8 798.771 2542.94 798.771 2555.74 798.771 2567.59 801.642 2578.5 807.385 2589.41 813.127 2594.87 820.099 2594.87 828.303 2594.87 834.045 2592.9 838.844 2588.96 842.699 2585.02 846.555 2581.17 848.482 2577.4 848.482 2574.11 848.482 2569.03 847.252 2562.14 844.791 2555.25 842.33 2548.19 841.099 2540.97 841.099 2522.27 841.099 2508.37 849.467 2499.26 866.201 2490.16 882.935 2485.6 911.482 2485.6 951.842L2485.6 1046.59C2485.6 1063.49 2478.38 1071.94 2463.95 1071.94 2455.74 1071.94 2450 1069.47 2446.72 1064.55 2443.44 1059.63 2441.8 1050.11 2441.8 1036.01L2441.8 826.334C2441.8 815.178 2443.4 807.795 2446.6 804.185 2449.8 800.576 2454.59 798.771 2460.99 798.771ZM2005.76 798.771C2013.8 798.771 2019.42 801.15 2022.62 805.908 2025.82 810.666 2027.42 820.346 2027.42 834.947L2027.42 957.01C2027.42 974.728 2028.85 988.469 2031.73 998.23 2034.6 1007.99 2040.91 1016.32 2050.67 1023.21 2060.44 1030.1 2071.06 1033.54 2082.54 1033.54 2098.13 1033.54 2111.99 1029.07 2124.13 1020.13 2136.27 1011.19 2144.72 1000.36 2149.48 987.648 2154.24 974.933 2156.62 951.267 2156.62 916.65L2156.62 834.947C2156.62 820.51 2158.3 810.871 2161.66 806.031 2165.03 801.191 2170.56 798.771 2178.27 798.771 2186.48 798.771 2192.22 801.15 2195.5 805.908 2198.78 810.666 2200.42 820.346 2200.42 834.947L2200.42 1036.99C2200.42 1050.77 2198.82 1060.04 2195.62 1064.8 2192.42 1069.56 2186.97 1071.94 2179.26 1071.94 2171.71 1071.94 2166.3 1069.52 2163.02 1064.68 2159.74 1059.84 2158.09 1047.08 2158.09 1026.41 2135.78 1056.76 2107.56 1071.94 2073.44 1071.94 2048.01 1071.94 2026.68 1064.68 2009.45 1050.16 1992.23 1035.64 1983.61 1010.25 1983.61 973.99L1983.61 834.947C1983.61 820.181 1985.38 810.461 1988.91 805.785 1992.43 801.109 1998.05 798.771 2005.76 798.771ZM2818.22 743.646 2818.22 1026.9 2892.29 1026.9C2915.26 1026.9 2933.67 1024.69 2947.54 1020.26 2961.4 1015.83 2974.61 1006.68 2987.16 992.816 2999.71 978.953 3007.95 961.849 3011.89 941.506 3015.83 921.162 3017.8 903.115 3017.8 887.365 3017.8 854.553 3012.51 826.744 3001.92 803.939 2991.34 781.135 2978.05 765.385 2962.06 756.689 2946.06 747.994 2921.99 743.646 2889.83 743.646ZM2311.85 719.037C2318.09 719.037 2323.34 721.006 2327.6 724.943 2331.87 728.881 2334 739.873 2334 757.92L2334 804.678 2357.38 804.678C2375.43 804.678 2384.45 809.928 2384.45 820.428 2384.45 831.092 2375.92 836.424 2358.86 836.424L2334 836.424 2334 991.709C2334 1010.58 2336.13 1022.68 2340.4 1028.01 2344.66 1033.34 2351.31 1036.01 2360.33 1036.01 2361.65 1036.01 2365.99 1035.51 2373.38 1034.53 2380.76 1033.54 2384.94 1033.05 2385.93 1033.05 2396.1 1033.05 2401.18 1038.22 2401.18 1048.56 2401.18 1062.99 2384.7 1070.21 2351.72 1070.21 2334.99 1070.21 2320.55 1066.19 2308.41 1058.15 2296.27 1050.11 2290.2 1029.11 2290.2 995.154L2290.2 836.424 2273.71 836.424C2260.58 836.424 2254.02 831.092 2254.02 820.428 2254.02 809.928 2261.9 804.678 2277.65 804.678L2290.2 804.678 2290.2 760.381C2290.2 742.826 2291.96 731.547 2295.49 726.543 2299.01 721.539 2304.47 719.037 2311.85 719.037ZM3357.45 706.486C3364.18 706.486 3369.88 708.865 3374.56 713.623 3379.23 718.381 3381.57 724.041 3381.57 730.603 3381.57 737.494 3379.23 743.318 3374.56 748.076 3369.88 752.834 3364.18 755.213 3357.45 755.213 3350.73 755.213 3344.98 752.834 3340.23 748.076 3335.47 743.318 3333.09 737.494 3333.09 730.603 3333.09 724.041 3335.47 718.381 3340.23 713.623 3344.98 708.865 3350.73 706.486 3357.45 706.486ZM2659.45 706.486C2666.18 706.486 2671.88 708.865 2676.56 713.623 2681.23 718.381 2683.57 724.041 2683.57 730.603 2683.57 737.494 2681.23 743.318 2676.56 748.076 2671.88 752.834 2666.18 755.213 2659.45 755.213 2652.73 755.213 2646.99 752.834 2642.23 748.076 2637.47 743.318 2635.09 737.494 2635.09 730.603 2635.09 724.041 2637.47 718.381 2642.23 713.623 2646.99 708.865 2652.73 706.486 2659.45 706.486ZM2810.59 705.01 2898.2 705.01C2920.84 705.01 2940.98 706.814 2958.61 710.424 2976.25 714.033 2994.09 723.18 3012.14 737.863 3030.18 752.547 3043.84 772.726 3053.11 798.402 3062.38 824.078 3067.02 852.912 3067.02 884.904 3067.02 936.912 3054.67 980.06 3029.98 1014.35 3005.29 1048.64 2961.52 1065.78 2898.69 1065.78L2810.59 1065.78C2791.56 1065.78 2779.99 1063.28 2775.89 1058.28 2771.79 1053.27 2769.73 1040.35 2769.73 1019.52L2769.73 745.123C2769.73 728.388 2771.54 717.519 2775.15 712.515 2778.76 707.512 2790.57 705.01 2810.59 705.01ZM1644.56 698.857C1651.29 698.857 1656.49 700.58 1660.19 704.025 1663.88 707.471 1669.74 715.181 1677.78 727.158L1856.69 994.17 1855.22 737.74C1854.72 722.646 1856.45 712.392 1860.38 706.978 1864.32 701.564 1870.15 698.857 1877.86 698.857 1886.22 698.857 1892.25 701.482 1895.94 706.732 1899.64 711.982 1901.48 722.318 1901.48 737.74L1901.48 1022.96C1901.48 1037.56 1900.82 1047.49 1899.51 1052.74 1898.2 1057.99 1894.84 1062.5 1889.42 1066.28 1884.01 1070.05 1878.1 1071.94 1871.7 1071.94 1864.49 1071.94 1858.82 1070.05 1854.72 1066.28 1850.62 1062.5 1844.55 1054.63 1836.51 1042.65L1660.56 780.068 1662.52 1033.05C1662.52 1044.7 1662.03 1052.53 1661.05 1056.55 1660.06 1060.57 1657.6 1064.14 1653.66 1067.26 1649.73 1070.38 1644.97 1071.94 1639.39 1071.94 1634.31 1071.94 1629.59 1070.42 1625.24 1067.38 1620.89 1064.35 1618.23 1060.66 1617.24 1056.31 1616.26 1051.96 1615.77 1044.21 1615.77 1033.05L1615.77 745.861C1615.77 730.931 1616.42 721.252 1617.74 716.822 1619.05 712.392 1622.08 708.291 1626.84 704.517 1631.6 700.744 1637.5 698.857 1644.56 698.857Z" fill="url(#fill6)" fill-rule="evenodd"/><text fill="#000000" fill-opacity="0" font-family="Arial,Arial_MSFontService,sans-serif" font-size="472.746" x="1615.77" y="1112.51">NutriDripp</text></g></svg>