<svg width="909" height="1098" xmlns="http://www.w3.org/2000/svg" xmlns:xlink="http://www.w3.org/1999/xlink" overflow="hidden"><defs><clipPath id="clip0"><rect x="1525" y="205" width="909" height="1098"/></clipPath></defs><g clip-path="url(#clip0)" transform="translate(-1525 -205)"><path d="M2200.32 1113.1C2202.11 1113.1 2203.6 1113.54 2204.8 1114.42 2206 1115.3 2206.97 1116.47 2207.7 1117.94 2208.43 1119.41 2208.95 1121.08 2209.26 1122.96 2209.56 1124.84 2209.71 1126.8 2209.71 1128.84 2209.71 1130.67 2209.52 1132.5 2209.15 1134.32 2208.77 1136.15 2208.19 1137.79 2207.4 1139.24 2206.62 1140.69 2205.61 1141.86 2204.37 1142.76 2203.14 1143.65 2201.64 1144.1 2199.89 1144.1 2198.03 1144.1 2196.24 1143.45 2194.52 1142.14 2192.81 1140.83 2191 1138.98 2189.1 1136.58L2189.1 1120.78C2190.18 1119.35 2191.2 1118.15 2192.16 1117.18 2193.13 1116.22 2194.07 1115.43 2194.98 1114.82 2195.89 1114.21 2196.79 1113.77 2197.66 1113.5 2198.54 1113.24 2199.43 1113.1 2200.32 1113.1ZM2141.93 1113.1C2143.72 1113.1 2145.21 1113.54 2146.41 1114.42 2147.61 1115.3 2148.57 1116.47 2149.31 1117.94 2150.04 1119.41 2150.56 1121.08 2150.86 1122.96 2151.17 1124.84 2151.32 1126.8 2151.32 1128.84 2151.32 1130.67 2151.13 1132.5 2150.76 1134.32 2150.38 1136.15 2149.8 1137.79 2149.01 1139.24 2148.23 1140.69 2147.21 1141.86 2145.98 1142.76 2144.75 1143.65 2143.25 1144.1 2141.5 1144.1 2139.64 1144.1 2137.85 1143.45 2136.13 1142.14 2134.41 1140.83 2132.61 1138.98 2130.71 1136.58L2130.71 1120.78C2131.78 1119.35 2132.8 1118.15 2133.77 1117.18 2134.74 1116.22 2135.68 1115.43 2136.59 1114.82 2137.5 1114.21 2138.39 1113.77 2139.27 1113.5 2140.15 1113.24 2141.03 1113.1 2141.93 1113.1ZM2096.47 1102.47C2095.15 1102.47 2094.06 1102.52 2093.2 1102.63 2092.34 1102.73 2091.65 1102.89 2091.13 1103.08 2090.61 1103.28 2090.24 1103.51 2090.03 1103.78 2089.82 1104.05 2089.71 1104.36 2089.71 1104.72L2089.71 1152.53C2089.71 1152.89 2089.82 1153.2 2090.03 1153.47 2090.24 1153.74 2090.61 1153.97 2091.13 1154.14 2091.65 1154.32 2092.34 1154.46 2093.2 1154.55 2094.06 1154.64 2095.15 1154.68 2096.47 1154.68 2097.79 1154.68 2098.89 1154.64 2099.74 1154.55 2100.6 1154.46 2101.29 1154.32 2101.81 1154.14 2102.33 1153.97 2102.7 1153.74 2102.91 1153.47 2103.13 1153.2 2103.23 1152.89 2103.23 1152.53L2103.23 1104.72C2103.23 1104.36 2103.13 1104.05 2102.91 1103.78 2102.7 1103.51 2102.33 1103.28 2101.81 1103.08 2101.29 1102.89 2100.6 1102.73 2099.74 1102.63 2098.89 1102.52 2097.79 1102.47 2096.47 1102.47ZM1962.51 1102.47C1961.19 1102.47 1960.1 1102.52 1959.24 1102.63 1958.38 1102.73 1957.69 1102.89 1957.17 1103.08 1956.65 1103.28 1956.29 1103.51 1956.07 1103.78 1955.86 1104.05 1955.75 1104.36 1955.75 1104.72L1955.75 1152.53C1955.75 1152.89 1955.86 1153.2 1956.07 1153.47 1956.29 1153.74 1956.65 1153.97 1957.17 1154.14 1957.69 1154.32 1958.38 1154.46 1959.24 1154.55 1960.1 1154.64 1961.19 1154.68 1962.51 1154.68 1963.84 1154.68 1964.93 1154.64 1965.79 1154.55 1966.65 1154.46 1967.33 1154.32 1967.85 1154.14 1968.37 1153.97 1968.74 1153.74 1968.95 1153.47 1969.17 1153.2 1969.27 1152.89 1969.27 1152.53L1969.27 1104.72C1969.27 1104.36 1969.17 1104.05 1968.95 1103.78 1968.74 1103.51 1968.37 1103.28 1967.85 1103.08 1967.33 1102.89 1966.65 1102.73 1965.79 1102.63 1964.93 1102.52 1963.84 1102.47 1962.51 1102.47ZM1828.23 1102.47C1826.94 1102.47 1825.86 1102.51 1824.99 1102.6 1824.11 1102.69 1823.41 1102.82 1822.89 1103 1822.37 1103.18 1822.02 1103.41 1821.82 1103.67 1821.62 1103.94 1821.52 1104.26 1821.52 1104.61L1821.52 1133.95C1821.52 1137.6 1821.82 1140.65 1822.41 1143.11 1823 1145.56 1823.98 1147.72 1825.36 1149.58 1826.74 1151.44 1828.55 1152.91 1830.78 1153.98 1833.02 1155.06 1835.78 1155.59 1839.07 1155.59 1842.01 1155.59 1844.84 1154.88 1847.58 1153.45 1850.32 1152.01 1853.01 1149.86 1855.66 1147L1855.66 1152.53C1855.66 1152.89 1855.75 1153.2 1855.93 1153.47 1856.1 1153.74 1856.41 1153.97 1856.84 1154.14 1857.27 1154.32 1857.85 1154.46 1858.58 1154.55 1859.32 1154.64 1860.27 1154.68 1861.45 1154.68 1862.56 1154.68 1863.48 1154.64 1864.22 1154.55 1864.95 1154.46 1865.54 1154.32 1865.99 1154.14 1866.44 1153.97 1866.75 1153.74 1866.93 1153.47 1867.11 1153.2 1867.2 1152.89 1867.2 1152.53L1867.2 1104.61C1867.2 1104.26 1867.09 1103.94 1866.87 1103.67 1866.66 1103.41 1866.3 1103.18 1865.8 1103 1865.3 1102.82 1864.62 1102.69 1863.76 1102.6 1862.9 1102.51 1861.81 1102.47 1860.49 1102.47 1859.16 1102.47 1858.07 1102.51 1857.21 1102.6 1856.35 1102.69 1855.67 1102.82 1855.15 1103 1854.63 1103.18 1854.27 1103.41 1854.07 1103.67 1853.88 1103.94 1853.78 1104.26 1853.78 1104.61L1853.78 1136.47C1851.81 1138.87 1849.96 1140.7 1848.22 1141.95 1846.49 1143.2 1844.76 1143.83 1843.05 1143.83 1841.69 1143.83 1840.5 1143.57 1839.48 1143.05 1838.46 1142.53 1837.62 1141.8 1836.95 1140.85 1836.29 1139.9 1835.8 1138.76 1835.48 1137.44 1835.16 1136.11 1834.99 1134.2 1834.99 1131.69L1834.99 1104.61C1834.99 1104.26 1834.89 1103.94 1834.67 1103.67 1834.46 1103.41 1834.09 1103.18 1833.57 1103 1833.05 1102.82 1832.36 1102.69 1831.51 1102.6 1830.65 1102.51 1829.56 1102.47 1828.23 1102.47ZM2204.29 1101.55C2202.61 1101.55 2201.03 1101.73 2199.54 1102.09 2198.06 1102.45 2196.62 1102.99 2195.22 1103.73 2193.83 1104.46 2192.46 1105.38 2191.12 1106.47 2189.77 1107.56 2188.41 1108.82 2187.01 1110.25L2187.01 1104.61C2187.01 1104.26 2186.92 1103.94 2186.74 1103.67 2186.56 1103.41 2186.25 1103.18 2185.8 1103 2185.35 1102.82 2184.76 1102.69 2184.03 1102.6 2183.3 1102.51 2182.39 1102.47 2181.32 1102.47 2180.21 1102.47 2179.29 1102.51 2178.56 1102.6 2177.82 1102.69 2177.23 1102.82 2176.79 1103 2176.34 1103.18 2176.03 1103.41 2175.85 1103.67 2175.67 1103.94 2175.58 1104.26 2175.58 1104.61L2175.58 1171.55C2175.58 1171.91 2175.69 1172.23 2175.9 1172.52 2176.11 1172.8 2176.48 1173.05 2177 1173.24 2177.52 1173.44 2178.21 1173.59 2179.07 1173.7 2179.93 1173.81 2181.02 1173.86 2182.34 1173.86 2183.66 1173.86 2184.76 1173.81 2185.61 1173.7 2186.47 1173.59 2187.16 1173.44 2187.68 1173.24 2188.2 1173.05 2188.57 1172.8 2188.78 1172.52 2189 1172.23 2189.1 1171.91 2189.1 1171.55L2189.1 1148.99C2190.25 1150.1 2191.36 1151.06 2192.43 1151.89 2193.5 1152.71 2194.59 1153.4 2195.68 1153.96 2196.77 1154.51 2197.9 1154.92 2199.06 1155.19 2200.22 1155.46 2201.5 1155.59 2202.9 1155.59 2206.26 1155.59 2209.25 1154.95 2211.86 1153.66 2214.47 1152.37 2216.65 1150.53 2218.41 1148.13 2220.16 1145.73 2221.49 1142.82 2222.4 1139.4 2223.32 1135.98 2223.77 1132.14 2223.77 1127.88 2223.77 1124.26 2223.42 1120.86 2222.7 1117.67 2221.98 1114.48 2220.85 1111.69 2219.29 1109.29 2217.74 1106.89 2215.72 1105 2213.25 1103.62 2210.79 1102.24 2207.8 1101.55 2204.29 1101.55ZM2145.9 1101.55C2144.22 1101.55 2142.63 1101.73 2141.15 1102.09 2139.67 1102.45 2138.22 1102.99 2136.83 1103.73 2135.43 1104.46 2134.07 1105.38 2132.72 1106.47 2131.38 1107.56 2130.01 1108.82 2128.62 1110.25L2128.62 1104.61C2128.62 1104.26 2128.53 1103.94 2128.35 1103.67 2128.17 1103.41 2127.86 1103.18 2127.41 1103 2126.96 1102.82 2126.37 1102.69 2125.64 1102.6 2124.91 1102.51 2124 1102.47 2122.93 1102.47 2121.82 1102.47 2120.9 1102.51 2120.16 1102.6 2119.43 1102.69 2118.84 1102.82 2118.39 1103 2117.95 1103.18 2117.63 1103.41 2117.45 1103.67 2117.28 1103.94 2117.19 1104.26 2117.19 1104.61L2117.19 1171.55C2117.19 1171.91 2117.29 1172.23 2117.51 1172.52 2117.72 1172.8 2118.09 1173.05 2118.61 1173.24 2119.13 1173.44 2119.82 1173.59 2120.67 1173.7 2121.53 1173.81 2122.62 1173.86 2123.95 1173.86 2125.27 1173.86 2126.36 1173.81 2127.22 1173.7 2128.08 1173.59 2128.77 1173.44 2129.29 1173.24 2129.81 1173.05 2130.17 1172.8 2130.39 1172.52 2130.6 1172.23 2130.71 1171.91 2130.71 1171.55L2130.71 1148.99C2131.86 1150.1 2132.97 1151.06 2134.04 1151.89 2135.11 1152.71 2136.19 1153.4 2137.29 1153.96 2138.38 1154.51 2139.5 1154.92 2140.67 1155.19 2141.83 1155.46 2143.11 1155.59 2144.5 1155.59 2147.87 1155.59 2150.85 1154.95 2153.47 1153.66 2156.08 1152.37 2158.26 1150.53 2160.01 1148.13 2161.77 1145.73 2163.1 1142.82 2164.01 1139.4 2164.93 1135.98 2165.38 1132.14 2165.38 1127.88 2165.38 1124.26 2165.02 1120.86 2164.31 1117.67 2163.59 1114.48 2162.46 1111.69 2160.9 1109.29 2159.34 1106.89 2157.33 1105 2154.86 1103.62 2152.39 1102.24 2149.41 1101.55 2145.9 1101.55ZM2076.18 1101.55C2075.18 1101.55 2074.18 1101.69 2073.18 1101.95 2072.18 1102.22 2071.17 1102.7 2070.17 1103.38 2069.17 1104.06 2068.11 1104.98 2067.01 1106.15 2065.9 1107.31 2064.72 1108.79 2063.46 1110.58L2063.46 1104.61C2063.46 1104.26 2063.37 1103.94 2063.2 1103.67 2063.02 1103.41 2062.72 1103.18 2062.31 1103 2061.9 1102.82 2061.32 1102.69 2060.57 1102.6 2059.81 1102.51 2058.87 1102.47 2057.72 1102.47 2056.61 1102.47 2055.69 1102.51 2054.96 1102.6 2054.22 1102.69 2053.62 1102.82 2053.16 1103 2052.69 1103.18 2052.37 1103.41 2052.19 1103.67 2052.01 1103.94 2051.93 1104.26 2051.93 1104.61L2051.93 1152.53C2051.93 1152.89 2052.03 1153.2 2052.25 1153.47 2052.46 1153.74 2052.83 1153.97 2053.35 1154.14 2053.87 1154.32 2054.55 1154.46 2055.41 1154.55 2056.27 1154.64 2057.36 1154.68 2058.69 1154.68 2060.01 1154.68 2061.1 1154.64 2061.96 1154.55 2062.82 1154.46 2063.51 1154.32 2064.03 1154.14 2064.55 1153.97 2064.91 1153.74 2065.13 1153.47 2065.34 1153.2 2065.45 1152.89 2065.45 1152.53L2065.45 1122.66C2066.45 1121.09 2067.39 1119.76 2068.27 1118.69 2069.14 1117.61 2069.98 1116.75 2070.79 1116.11 2071.59 1115.47 2072.37 1114.99 2073.12 1114.69 2073.88 1114.38 2074.63 1114.23 2075.38 1114.23 2076.02 1114.23 2076.61 1114.29 2077.15 1114.42 2077.69 1114.54 2078.18 1114.68 2078.63 1114.82 2079.07 1114.96 2079.48 1115.1 2079.83 1115.22 2080.19 1115.35 2080.51 1115.41 2080.8 1115.41 2081.16 1115.41 2081.45 1115.32 2081.68 1115.14 2081.92 1114.96 2082.1 1114.64 2082.25 1114.18 2082.39 1113.71 2082.5 1113.07 2082.57 1112.24 2082.64 1111.42 2082.68 1110.36 2082.68 1109.07 2082.68 1107.78 2082.66 1106.76 2082.62 1106.01 2082.59 1105.26 2082.53 1104.69 2082.46 1104.32 2082.39 1103.94 2082.31 1103.65 2082.22 1103.43 2082.13 1103.22 2081.99 1103.02 2081.79 1102.84 2081.59 1102.66 2081.28 1102.49 2080.85 1102.33 2080.42 1102.17 2079.92 1102.03 2079.35 1101.9 2078.78 1101.78 2078.22 1101.69 2077.69 1101.63 2077.15 1101.58 2076.65 1101.55 2076.18 1101.55ZM1942.23 1101.55C1941.22 1101.55 1940.22 1101.69 1939.22 1101.95 1938.22 1102.22 1937.22 1102.7 1936.21 1103.38 1935.21 1104.06 1934.16 1104.98 1933.05 1106.15 1931.94 1107.31 1930.76 1108.79 1929.51 1110.58L1929.51 1104.61C1929.51 1104.26 1929.42 1103.94 1929.24 1103.67 1929.06 1103.41 1928.76 1103.18 1928.35 1103 1927.94 1102.82 1927.36 1102.69 1926.61 1102.6 1925.86 1102.51 1924.91 1102.47 1923.76 1102.47 1922.65 1102.47 1921.73 1102.51 1921 1102.6 1920.27 1102.69 1919.67 1102.82 1919.2 1103 1918.74 1103.18 1918.41 1103.41 1918.24 1103.67 1918.06 1103.94 1917.97 1104.26 1917.97 1104.61L1917.97 1152.53C1917.97 1152.89 1918.07 1153.2 1918.29 1153.47 1918.5 1153.74 1918.87 1153.97 1919.39 1154.14 1919.91 1154.32 1920.6 1154.46 1921.46 1154.55 1922.31 1154.64 1923.41 1154.68 1924.73 1154.68 1926.05 1154.68 1927.14 1154.64 1928 1154.55 1928.86 1154.46 1929.55 1154.32 1930.07 1154.14 1930.59 1153.97 1930.95 1153.74 1931.17 1153.47 1931.38 1153.2 1931.49 1152.89 1931.49 1152.53L1931.49 1122.66C1932.49 1121.09 1933.43 1119.76 1934.31 1118.69 1935.19 1117.61 1936.03 1116.75 1936.83 1116.11 1937.64 1115.47 1938.41 1114.99 1939.17 1114.69 1939.92 1114.38 1940.67 1114.23 1941.42 1114.23 1942.06 1114.23 1942.65 1114.29 1943.19 1114.42 1943.73 1114.54 1944.22 1114.68 1944.67 1114.82 1945.11 1114.96 1945.52 1115.1 1945.87 1115.22 1946.23 1115.35 1946.55 1115.41 1946.84 1115.41 1947.2 1115.41 1947.49 1115.32 1947.73 1115.14 1947.96 1114.96 1948.15 1114.64 1948.29 1114.18 1948.43 1113.71 1948.54 1113.07 1948.61 1112.24 1948.68 1111.42 1948.72 1110.36 1948.72 1109.07 1948.72 1107.78 1948.7 1106.76 1948.67 1106.01 1948.63 1105.26 1948.58 1104.69 1948.5 1104.32 1948.43 1103.94 1948.35 1103.65 1948.26 1103.43 1948.17 1103.22 1948.03 1103.02 1947.83 1102.84 1947.64 1102.66 1947.32 1102.49 1946.89 1102.33 1946.47 1102.17 1945.96 1102.03 1945.39 1101.9 1944.82 1101.78 1944.26 1101.69 1943.73 1101.63 1943.19 1101.58 1942.69 1101.55 1942.23 1101.55ZM1998.09 1095.91 2005.23 1095.91C2009.56 1095.91 2013.06 1096.49 2015.73 1097.66 2018.39 1098.82 2020.57 1100.44 2022.27 1102.52 2023.97 1104.6 2025.21 1107.05 2025.98 1109.88 2026.75 1112.71 2027.13 1115.77 2027.13 1119.06 2027.13 1123.08 2026.69 1126.59 2025.82 1129.59 2024.94 1132.6 2023.61 1135.12 2021.84 1137.14 2020.07 1139.17 2017.86 1140.68 2015.22 1141.68 2012.57 1142.68 2009.31 1143.19 2005.45 1143.19L1998.09 1143.19ZM1889.2 1089.84C1887.91 1089.84 1886.83 1089.89 1885.95 1089.98 1885.08 1090.06 1884.38 1090.21 1883.86 1090.4 1883.34 1090.6 1882.98 1090.84 1882.79 1091.13 1882.59 1091.42 1882.49 1091.74 1882.49 1092.1L1882.49 1102.79 1876.8 1102.79C1876.45 1102.79 1876.13 1102.88 1875.86 1103.06 1875.6 1103.24 1875.37 1103.53 1875.19 1103.94 1875.01 1104.35 1874.88 1104.92 1874.79 1105.63 1874.7 1106.35 1874.66 1107.23 1874.66 1108.27 1874.66 1110.24 1874.83 1111.64 1875.19 1112.48 1875.55 1113.33 1876.07 1113.75 1876.75 1113.75L1882.49 1113.75 1882.49 1138.3C1882.49 1141.23 1882.8 1143.78 1883.4 1145.93 1884.01 1148.07 1884.96 1149.86 1886.25 1151.27 1887.54 1152.69 1889.16 1153.73 1891.13 1154.41 1893.1 1155.09 1895.43 1155.43 1898.11 1155.43 1899.11 1155.43 1900.1 1155.38 1901.09 1155.27 1902.07 1155.17 1902.98 1155.01 1903.83 1154.82 1904.67 1154.62 1905.4 1154.39 1906.03 1154.12 1906.65 1153.85 1907.13 1153.54 1907.45 1153.2 1907.77 1152.86 1908.03 1152.27 1908.23 1151.43 1908.42 1150.59 1908.52 1149.38 1908.52 1147.81 1908.52 1146.8 1908.48 1145.98 1908.39 1145.33 1908.3 1144.69 1908.2 1144.18 1908.09 1143.8 1907.98 1143.43 1907.83 1143.18 1907.64 1143.05 1907.44 1142.93 1907.23 1142.86 1907.02 1142.86 1906.77 1142.86 1906.49 1142.93 1906.19 1143.05 1905.88 1143.18 1905.51 1143.32 1905.06 1143.48 1904.61 1143.64 1904.1 1143.79 1903.53 1143.91 1902.96 1144.04 1902.31 1144.1 1901.6 1144.1 1899.49 1144.1 1898.02 1143.45 1897.2 1142.14 1896.37 1140.83 1895.96 1138.87 1895.96 1136.26L1895.96 1113.75 1906.43 1113.75C1907.11 1113.75 1907.63 1113.33 1907.98 1112.48 1908.34 1111.64 1908.52 1110.24 1908.52 1108.27 1908.52 1107.23 1908.48 1106.35 1908.39 1105.63 1908.3 1104.92 1908.16 1104.35 1907.98 1103.94 1907.81 1103.53 1907.58 1103.24 1907.31 1103.06 1907.05 1102.88 1906.73 1102.79 1906.37 1102.79L1895.96 1102.79 1895.96 1092.1C1895.96 1091.74 1895.86 1091.42 1895.64 1091.13 1895.43 1090.84 1895.07 1090.6 1894.57 1090.4 1894.07 1090.21 1893.38 1090.06 1892.5 1089.98 1891.62 1089.89 1890.52 1089.84 1889.2 1089.84ZM1988.22 1084.84C1987.04 1084.84 1986.05 1085.19 1985.24 1085.89 1984.44 1086.59 1984.03 1087.73 1984.03 1089.3L1984.03 1149.9C1984.03 1151.48 1984.44 1152.61 1985.24 1153.31 1986.05 1154.01 1987.04 1154.36 1988.22 1154.36L2004.8 1154.36C2010.96 1154.36 2016.26 1153.69 2020.72 1152.34 2025.17 1151 2028.95 1148.9 2032.07 1146.03 2035.18 1143.17 2037.57 1139.47 2039.23 1134.94 2040.9 1130.41 2041.73 1124.96 2041.73 1118.58 2041.73 1113.07 2040.96 1108.21 2039.42 1104.02 2037.88 1099.83 2035.64 1096.31 2032.68 1093.47 2029.73 1090.62 2026.1 1088.47 2021.79 1087.02 2017.48 1085.57 2012.23 1084.84 2006.04 1084.84ZM1801.56 1084.63C1800.27 1084.63 1799.22 1084.67 1798.39 1084.76 1797.57 1084.85 1796.91 1085.01 1796.41 1085.22 1795.91 1085.44 1795.55 1085.69 1795.33 1085.97 1795.12 1086.26 1795.01 1086.58 1795.01 1086.94L1795.01 1119.55C1795.01 1122.02 1795.04 1124.62 1795.09 1127.34 1795.15 1130.06 1795.23 1132.67 1795.33 1135.18L1795.28 1135.18C1794.64 1133.75 1793.97 1132.32 1793.29 1130.88 1792.61 1129.45 1791.92 1127.99 1791.2 1126.51 1790.49 1125.02 1789.74 1123.53 1788.97 1122.05 1788.2 1120.56 1787.43 1119.05 1786.64 1117.51L1773.11 1092.1C1772.43 1090.7 1771.77 1089.53 1771.13 1088.58 1770.48 1087.63 1769.8 1086.89 1769.06 1086.35 1768.33 1085.81 1767.5 1085.43 1766.57 1085.19 1765.64 1084.96 1764.49 1084.84 1763.13 1084.84L1755.56 1084.84C1754.13 1084.84 1752.93 1085.27 1751.94 1086.11 1750.96 1086.95 1750.47 1088.21 1750.47 1089.89L1750.47 1152.37C1750.47 1152.73 1750.56 1153.05 1750.73 1153.34 1750.91 1153.63 1751.24 1153.87 1751.7 1154.06 1752.17 1154.26 1752.81 1154.41 1753.63 1154.52 1754.46 1154.63 1755.49 1154.68 1756.75 1154.68 1758.03 1154.68 1759.09 1154.63 1759.91 1154.52 1760.73 1154.41 1761.39 1154.26 1761.87 1154.06 1762.35 1153.87 1762.69 1153.63 1762.89 1153.34 1763.09 1153.05 1763.19 1152.73 1763.19 1152.37L1763.19 1116C1763.19 1113.28 1763.15 1110.64 1763.08 1108.08 1763.01 1105.52 1762.9 1102.95 1762.76 1100.37L1762.86 1100.37C1763.69 1102.48 1764.62 1104.66 1765.65 1106.9 1766.69 1109.14 1767.71 1111.22 1768.71 1113.16L1785.99 1145.66C1786.89 1147.45 1787.69 1148.91 1788.41 1150.04 1789.13 1151.16 1789.87 1152.06 1790.64 1152.72 1791.41 1153.38 1792.25 1153.84 1793.16 1154.09 1794.07 1154.34 1795.15 1154.47 1796.41 1154.47L1802.42 1154.47C1803.1 1154.47 1803.77 1154.37 1804.43 1154.17 1805.09 1153.97 1805.66 1153.66 1806.15 1153.23 1806.63 1152.8 1807.02 1152.26 1807.3 1151.62 1807.59 1150.97 1807.73 1150.24 1807.73 1149.42L1807.73 1086.94C1807.73 1086.58 1807.64 1086.26 1807.46 1085.97 1807.28 1085.69 1806.97 1085.44 1806.52 1085.22 1806.08 1085.01 1805.44 1084.85 1804.62 1084.76 1803.8 1084.67 1802.78 1084.63 1801.56 1084.63ZM2096.52 1081.41C2093.48 1081.41 2091.42 1081.94 2090.32 1082.99 2089.23 1084.05 2088.69 1085.94 2088.69 1088.66 2088.69 1091.27 2089.22 1093.08 2090.27 1094.08 2091.33 1095.09 2093.38 1095.59 2096.42 1095.59 2099.42 1095.59 2101.48 1095.07 2102.59 1094.03 2103.7 1092.99 2104.25 1091.11 2104.25 1088.39 2104.25 1085.78 2103.72 1083.96 2102.64 1082.94 2101.57 1081.92 2099.53 1081.41 2096.52 1081.41ZM1962.57 1081.41C1959.52 1081.41 1957.46 1081.94 1956.37 1082.99 1955.28 1084.05 1954.73 1085.94 1954.73 1088.66 1954.73 1091.27 1955.26 1093.08 1956.31 1094.08 1957.37 1095.09 1959.42 1095.59 1962.46 1095.59 1965.46 1095.59 1967.52 1095.07 1968.63 1094.03 1969.74 1092.99 1970.29 1091.11 1970.29 1088.39 1970.29 1085.78 1969.76 1083.96 1968.68 1082.94 1967.61 1081.92 1965.57 1081.41 1962.57 1081.41ZM2078.75 931.163C2029.62 931.133 1989.55 970.558 1988.73 1019.73 2000.72 1019.67 2012.67 1018.43 2024.42 1016.03 2024.42 1015.38 2024.57 1014.73 2024.66 1014.05 2024.65 1013.88 2024.65 1013.7 2024.66 1013.53 2024.86 1012.08 2025.12 1010.63 2025.44 1009.18 2025.47 1008.96 2025.52 1008.74 2025.59 1008.53 2025.92 1007.16 2026.29 1005.78 2026.72 1004.39 2026.72 1004.2 2026.87 1003.96 2026.94 1003.72 2027.4 1002.37 2027.9 1001.06 2028.46 999.736L2028.72 999.105C2029.31 997.8 2029.92 996.517 2030.61 995.255 2030.61 995.059 2030.83 994.885 2030.92 994.711 2031.6 993.414 2032.37 992.157 2033.2 990.947L2033.48 990.512C2034.33 989.25 2035.24 988.054 2036.18 986.857L2036.39 986.618C2037.41 985.378 2038.46 984.181 2039.57 983.05 2049.79 972.473 2063.88 966.524 2078.58 966.581 2082.08 966.579 2085.58 966.914 2089.01 967.582 2090.48 967.856 2091.93 968.204 2093.36 968.626L2094.16 968.844C2095.55 969.257 2096.9 969.714 2098.25 970.236L2099.01 970.541C2100.38 971.084 2101.73 971.715 2103.07 972.346L2103.55 972.607C2104.92 973.347 2106.29 974.108 2107.64 974.957 2107.71 975.007 2107.78 975.066 2107.83 975.131 2117.03 967.277 2125.42 958.534 2132.89 949.024 2132.51 948.905 2132.15 948.722 2131.83 948.48L2131.92 948.589C2131.53 948.263 2131.11 947.958 2130.7 947.675 2129.61 946.914 2128.53 946.153 2127.42 945.5 2127.09 945.304 2126.83 945.108 2126.5 944.934 2125.14 944.042 2123.7 943.216 2122.27 942.411L2121.31 941.889C2120.14 941.258 2119.01 940.648 2117.83 940.083L2116.46 939.452C2115.14 938.821 2113.81 938.277 2112.46 937.712L2111.42 937.255C2110.23 936.754 2107.99 936.015 2106.75 935.623L2105.92 935.384C2104.68 934.992 2103.47 934.622 2102.21 934.296L2100.79 933.904C2099.16 933.491 2097.51 933.121 2095.88 932.795 2090.24 931.709 2084.5 931.163 2078.75 931.163ZM2078.67 862.829C2068.9 862.879 2059.17 863.856 2049.59 865.744 1995.74 875.893 1950.97 913.2 1931.24 964.362 1930.42 966.538 1929.68 968.561 1929.07 970.671 1928.83 971.346 1928.63 972.02 1928.39 972.695 1927.92 974.152 1927.48 975.61 1927.05 977.046 1926.81 977.829 1926.61 978.59 1926.39 979.373 1926 980.788 1925.63 982.223 1925.29 983.724 1925.11 984.486 1924.92 985.247 1924.74 985.9 1924.4 987.532 1924.03 989.207 1923.72 990.882 1923.59 991.382 1923.48 991.904 1923.4 992.427 1922.98 994.602 1922.63 996.778 1922.33 998.953 1922.33 999.497 1922.2 1000.06 1922.13 1000.65 1921.85 1002.93 1921.57 1005.28 1921.35 1007.52 1932.31 1011.7 1943.64 1014.83 1955.19 1016.86L1956.41 1015.75C1956.41 1014.42 1956.41 1013.07 1956.58 1011.77 1956.58 1010.9 1956.71 1010.05 1956.8 1009.16 1956.89 1008.26 1957.04 1007.18 1957.15 1006.2 1957.26 1005.22 1957.32 1004.5 1957.43 1003.65 1957.54 1002.8 1957.76 1001.67 1957.93 1000.67 1958.11 999.671 1958.19 999.04 1958.34 998.214 1958.5 997.387 1958.76 996.169 1959 995.168 1959.24 994.167 1959.32 993.58 1959.5 992.796 1959.67 992.013 1960.02 990.621 1960.3 989.663 1960.58 988.706 1960.67 988.184 1960.87 987.488 1961.21 986.313 1961.56 985.16 1961.95 983.985 1962.13 983.42 1962.3 982.789 1962.5 982.18 1963.08 980.461 1963.71 978.699 1964.39 976.959 1982.53 929.579 2028 898.319 2078.69 898.378 2080.56 898.378 2082.45 898.378 2084.27 898.486L2086.1 898.486C2087.36 898.595 2088.62 898.639 2089.88 898.769 2090.58 898.769 2091.27 898.9 2092.06 898.987L2095.47 899.4C2096.21 899.4 2096.92 899.618 2097.64 899.726 2098.75 899.901 2099.81 900.075 2101.01 900.292L2103.18 900.684 2106.66 901.445 2108.57 901.902C2110.01 902.25 2111.4 902.663 2112.92 903.033 2113.26 903.155 2113.61 903.258 2113.96 903.338 2115.72 903.86 2117.46 904.404 2119.18 905.035 2119.68 905.165 2120.14 905.383 2120.64 905.557 2121.88 905.992 2123.09 906.471 2124.33 906.927L2126.2 907.732 2129.4 909.103C2130.05 909.386 2130.68 909.712 2131.35 910.017L2134.37 911.496C2135 911.844 2135.65 912.171 2136.31 912.497 2137.33 913.063 2138.35 913.607 2139.35 914.194L2141.13 915.195C2142.26 915.869 2143.31 916.565 2144.52 917.37 2144.94 917.631 2145.37 917.892 2145.8 918.197 2147.37 919.176 2148.89 920.242 2150.37 921.286 2150.61 921.495 2150.87 921.691 2151.13 921.874 2155.64 913.465 2159.47 904.715 2162.61 895.702 2164.09 891.494 2162.39 886.821 2158.54 884.563L2158.48 884.52 2157.15 883.78C2155.61 882.866 2154.02 882.017 2152.43 881.169 2151.76 880.799 2151.06 880.473 2150.39 880.125 2148.98 879.407 2146.67 878.297 2145.26 877.601L2143.98 877.014C2142.41 876.317 2140.78 875.6 2139.18 874.838L2137.65 874.207C2135.48 873.359 2133.42 872.554 2131.29 871.792L2129.59 871.249C2127.98 870.683 2126.33 870.161 2124.72 869.66L2122.44 868.986C2120.92 868.507 2119.38 868.116 2117.81 867.746L2115.64 867.202C2113.77 866.767 2111.86 866.354 2109.96 865.984L2108.92 865.744C2106.75 865.375 2104.57 865.2 2102.53 864.678 2101.75 864.504 2100.92 864.439 2100.12 864.308 2098.45 864.091 2096.82 863.895 2095.14 863.721L2092.71 863.482C2091.16 863.308 2089.62 863.177 2088.08 863.134L2085.69 863.025C2083.36 863.025 2081.01 862.829 2078.67 862.829ZM1900.88 643.055C1852.19 646.145 1802.57 664.811 1784.3 672.164 1782.22 672.948 1781.17 675.269 1781.95 677.349 1782.25 678.149 1782.8 678.833 1783.51 679.3 1795.71 687.243 1807.21 696.202 1817.9 706.081 1856.91 741.738 1907.1 800.696 1961.06 784.422 1962.74 783.957 1963.72 782.219 1963.26 780.541 1963.02 779.686 1962.44 778.973 1961.65 778.57 1932.48 763.668 1913.66 742.021 1905.62 713.957 1904.43 709.666 1903.5 705.307 1902.84 700.903 1878.04 693.572 1853.89 687.98 1834.52 684.151 1809.07 679.061 1791.9 676.864 1791.9 676.864 1791.9 676.864 1809.16 678.364 1834.85 682.433 1853.87 685.413 1877.54 689.852 1902.1 695.965 1900.56 679.96 1901.52 663.812 1904.94 648.102 1905.48 645.922 1904.16 643.715 1901.98 643.174 1901.62 643.084 1901.25 643.044 1900.88 643.055ZM1989.02 503.667C1988 504.013 1987.1 504.657 1986.45 505.517 1968.58 529.252 1919.7 599.261 1911.72 663.941 1905.94 710.628 1921.53 754.53 1985.45 776.242L1985.58 776.373C1986.63 780.887 1987.96 785.334 1989.56 789.687 1990.66 792.972 1991.73 796.214 1992.92 798.955 1994.12 801.696 1995.23 804.481 1996.29 806.983 1996.71 807.788 1997.12 808.593 1997.49 809.398 1994.1 810.703 1990.73 812.139 1987.4 813.596 1958.66 800.859 1927.56 794.314 1896.12 794.386 1870.15 794.339 1844.36 798.755 1819.87 807.44 1808.92 811.427 1801.65 821.877 1801.7 833.546L1801.7 833.742C1801.7 840.662 1802.09 847.578 1802.88 854.453 1803.54 853.875 1804.27 853.376 1805.05 852.974 1848.52 829.452 1899.38 823.608 1947.04 836.657 1946.04 837.375 1945.09 838.137 1944.11 838.833 1943.13 839.529 1941.52 840.769 1940.26 841.748 1938.65 843.01 1937.07 844.25 1935.52 845.555 1933.98 846.861 1933.02 847.578 1931.83 848.601 1930.26 849.95 1928.72 851.32 1927.2 852.691 1926.07 853.757 1924.89 854.867 1923.74 855.867 1922.18 857.325 1920.64 858.87 1919.11 860.392 1917.59 861.915 1916.7 862.764 1915.53 864.026 1914.14 863.83 1912.75 863.699 1911.33 863.569 1911.17 863.58 1911.01 863.58 1910.85 863.569 1908.68 863.373 1906.51 863.264 1904.33 863.134L1902.77 863.134C1900.6 863.134 1898.42 862.982 1896.25 862.982 1894.08 862.982 1891.58 862.982 1889.23 863.177L1887.05 863.286C1885.51 863.286 1883.97 863.438 1882.45 863.612 1881.53 863.612 1880.69 863.764 1879.82 863.873 1878.14 864.047 1876.51 864.243 1874.84 864.461 1873.99 864.613 1873.08 864.657 1872.19 864.896 1870.19 865.396 1868.15 865.57 1866.1 865.875L1864.97 866.136C1863.08 866.506 1861.21 866.919 1859.34 867.354 1858.56 867.529 1857.82 867.746 1857.17 867.92L1853.32 868.921C1852.32 869.247 1851.35 869.508 1850.35 869.813 1848.72 870.313 1847.11 870.835 1845.5 871.401L1843.76 871.945C1841.59 872.706 1839.41 873.511 1837.41 874.36L1835.89 874.991C1834.28 875.665 1832.68 876.383 1831.09 877.166L1829.13 878.08 1824.79 880.255 1822.72 881.321C1821.11 882.17 1819.5 883.084 1817.9 883.997L1816.72 884.672C1812.88 886.891 1811.16 891.535 1812.64 895.724 1815.83 904.817 1819.74 913.641 1824.33 922.113L1824.83 921.7C1825.04 921.523 1825.26 921.369 1825.5 921.243 1826.74 920.351 1827.96 919.502 1829.22 918.654L1830.72 917.718C1831.76 917.044 1832.89 916.391 1833.87 915.782 1834.37 915.456 1834.89 915.173 1835.41 914.846 1836.63 914.151 1837.85 913.476 1839.11 912.823L1840.09 912.301C1841.63 911.474 1843.22 910.713 1844.82 909.951L1846.13 909.364C1847.3 908.842 1848.5 908.32 1849.74 907.82L1850.54 907.471C1851.67 907.014 1853.54 906.275 1854.71 905.883L1856.41 905.274C1858.08 904.709 1859.78 904.165 1861.47 903.664L1861.91 903.512C1863.45 903.077 1865.02 902.642 1866.58 902.25 1867.15 902.098 1867.67 901.989 1868.23 901.88 1869.45 901.576 1870.69 901.315 1871.91 901.054 1872.49 900.923 1873.06 900.814 1873.64 900.727L1877.8 899.988 1880.25 899.618C1881.6 899.422 1882.93 899.27 1884.27 899.183L1885.58 899.183 1888.42 898.965C1887.05 901.141 1885.73 903.316 1884.45 905.492 1883.97 906.297 1883.53 907.08 1883.06 907.863 1881.82 909.865 1880.6 911.866 1879.56 913.998L1878.8 915.564C1877.34 918.284 1875.97 921.047 1874.64 923.831 1874.41 924.375 1874.14 924.898 1873.88 925.442 1872.58 928.204 1871.36 931.011 1870.17 933.861 1869.95 934.405 1869.71 934.948 1869.52 935.492 1868.3 938.451 1867.12 941.41 1866.04 944.434 1865.21 946.74 1864.43 949.068 1863.67 951.374 1863.43 952.114 1863.23 952.831 1862.99 953.549 1862.5 955.16 1861.99 956.769 1861.52 958.401 1861.26 959.293 1861.04 960.185 1860.8 961.077L1858.87 967.93C1868.44 977.2 1878.98 985.406 1890.32 992.405L1890.32 991.926C1890.53 990.599 1890.73 989.25 1890.97 987.945 1891.1 987.205 1891.25 986.487 1891.34 985.77 1891.44 984.29 1891.73 982.828 1892.18 981.418 1892.3 981.1 1892.38 980.772 1892.42 980.439 1892.84 978.568 1893.27 976.697 1893.75 974.805 1893.9 974.261 1894.03 973.695 1894.18 973.108 1894.53 971.802 1894.88 970.475 1895.25 969.148 1895.44 968.517 1895.62 967.865 1895.79 967.234 1896.18 965.928 1896.6 964.645 1896.99 963.361 1897.16 962.774 1897.36 962.186 1897.53 961.621 1898.14 959.793 1898.75 957.966 1899.4 956.16 1900.42 953.332 1901.57 950.526 1902.64 947.785 1910.67 928.411 1921.84 910.502 1935.72 894.788 1937.89 892.373 1940.07 890.045 1942.24 887.761 1955.44 874.135 1970.6 862.57 1987.23 853.453 1988.4 852.8 1989.62 852.212 1990.79 851.603 1992.45 850.755 1994.01 849.885 1995.68 849.08 2051.63 821.875 2117.29 823.595 2171.73 853.692 2172.03 853.824 2172.31 854.001 2172.56 854.214 2173.32 847.417 2173.7 840.582 2173.69 833.742L2173.13 833.59C2173.2 821.927 2165.95 811.475 2155 807.483 2109.12 791.197 2059.23 790.022 2012.64 804.133 2010.42 804.829 2008.03 803.876 2006.9 801.849L2003.49 794.539C2002.2 791.928 2001.14 788.991 1999.97 785.989 1998.79 782.987 1997.58 779.701 1996.51 776.264 1995.45 772.827 1994.21 769.259 1993.25 765.386 1992.29 761.514 1991.08 757.707 1990.29 753.639 1989.51 749.57 1988.4 745.415 1987.69 741.107 1986.97 736.799 1986.1 732.405 1985.51 727.858 1982.74 708.92 1981.05 689.838 1980.45 670.706 1980.19 663.114 1980.04 655.478 1980.04 647.95 1980.04 616.666 1981.9 586.513 1984.19 562.886 1986.84 535.344 1989.82 516.504 1990.19 514.284 1989.9 516.46 1987.47 535.431 1985.69 563.039 1984.1 586.665 1983.12 616.666 1984.1 647.885 1984.34 655.521 1984.73 663.244 1985.23 670.989 1986.39 690.091 1988.67 709.107 1992.03 727.945 1992.84 732.449 1993.68 736.843 1994.66 740.999 1995.64 745.154 1996.58 749.44 1997.66 753.464 1998.75 757.489 1999.84 761.362 2000.99 765.125 2001.31 766.322 2001.7 767.497 2002.07 768.628 2002.96 771.332 2005.87 772.805 2008.58 771.917 2008.78 771.848 2008.99 771.767 2009.18 771.674 2065.97 744.871 2075.67 706.146 2066.97 665.703 2058.28 626.151 2032.02 584.881 2014.66 551.312 2007.22 537.092 2000.94 522.294 1995.88 507.062 1994.92 504.228 1991.85 502.708 1989.02 503.667ZM1979.37 205 2298.06 523.997 2300.92 526.597C2321.47 547.173 2340.07 569.712 2356.4 593.907L2358.71 597.707 2358.88 597.943 2359.95 599.761 2379.16 631.406 2381.47 636.212 2381.75 636.688 2383.12 639.641 2398.29 671.163 2400.36 676.817 2400.47 677.049 2400.96 678.452 2413.57 712.948C2426.85 755.673 2434 801.097 2434 848.194 2434 895.29 2426.85 940.716 2413.57 983.44L2400.95 1017.97 2400.47 1019.34 2400.36 1019.56 2398.29 1025.22 2383.11 1056.78 2381.75 1059.7 2381.48 1060.17 2379.16 1064.98 2359.92 1096.68 2358.88 1098.44 2358.71 1098.67 2356.4 1102.48C2323.74 1150.87 2282.02 1192.63 2233.67 1225.33L2230.41 1227.31 2229.38 1228.07 2221.45 1232.76 2196.21 1248.11 2192.38 1249.96 2190.67 1250.96 2180.09 1255.88 2156.49 1267.26 2152.26 1268.81 2150.35 1269.7 2138.81 1273.74 2114.75 1282.55 2110.53 1283.64 2108.73 1284.27 2095.89 1287.41 2071.2 1293.76 2067.7 1294.29 2066.15 1294.67 2049.06 1297.14 2026.09 1300.65 2024.05 1300.76 2022.92 1300.92 1984.39 1302.76 1979.63 1303 1979.5 1302.99 1979.37 1303C1964.83 1303 1950.3 1302.31 1935.82 1300.92L1934.41 1300.71 1933.17 1300.65 1919.27 1298.53 1892.59 1294.67 1890.16 1294.08 1888.06 1293.76 1873.2 1289.94 1850 1284.27 1846.76 1283.13 1844.52 1282.55 1831.71 1277.86 1808.39 1269.7 1804.53 1267.91 1802.77 1267.26 1792.94 1262.52 1768.07 1250.96 1764.06 1248.59 1763.05 1248.11 1756.41 1244.07 1729.36 1228.07 1725.85 1225.48 1725.59 1225.33 1722.98 1223.38 1692.59 1201.01C1680.69 1191.3 1669.17 1180.89 1658.08 1169.79 1635.9 1147.59 1616.49 1123.66 1599.86 1098.44L1580.21 1065.16 1580.1 1064.98 1580.09 1064.95 1576.99 1059.7 1561.86 1027.09 1560.97 1025.22 1560.85 1024.89 1558.27 1019.34 1546.53 985.754 1545.69 983.44 1545.58 983.034 1543.71 977.683C1518.76 893.296 1518.76 803.09 1543.71 718.704L1545.59 713.348 1545.69 712.948 1546.52 710.664 1558.27 677.049 1560.85 671.49 1560.97 671.163 1561.85 669.336 1576.99 636.688 1580.09 631.426 1580.1 631.406 1580.18 631.276 1599.86 597.943C1616.49 572.724 1635.9 548.798 1658.08 526.597Z" fill="#063149" fill-rule="evenodd"/></g></svg>