<svg id="Layer_1" data-name="Layer 1" xmlns="http://www.w3.org/2000/svg" viewBox="0 0 267.92 350"><defs><style>.cls-1{fill:#fff;}</style></defs><path class="cls-1" d="M384,223.83a18.71,18.71,0,0,0-12.31-17.65,154.77,154.77,0,0,0-96.56-2.32,3.32,3.32,0,0,1-3.89-1.54l0,0-2.32-5c-.88-1.76-1.59-3.75-2.39-5.8s-1.62-4.24-2.34-6.59-1.57-4.74-2.22-7.3-1.41-5.21-2-8-1.27-5.58-1.76-8.49-1.08-5.92-1.53-9a341.24,341.24,0,0,1-3.44-38.74c-.18-5.14-.28-10.3-.28-15.42,0-21.21,1.27-41.64,2.82-57.66,1.79-18.67,3.82-31.43,4.07-32.94-.2,1.53-1.84,14.33-3,33-1.08,16-1.75,36.35-1.08,57.48.16,5.18.42,10.42.76,15.66A338.58,338.58,0,0,0,261,152.2c.54,3.06,1.12,6,1.79,8.94s1.29,5.71,2,8.43,1.45,5.37,2.26,7.91c.22.81.48,1.61.73,2.38a3.49,3.49,0,0,0,4.83,2.06c38.58-18.22,45.19-44.47,39.21-71.89-5.83-26.81-23.7-54.78-35.48-77.54a201.24,201.24,0,0,1-12.74-30,3.66,3.66,0,0,0-6.4-1C245.13,17.54,212,65,206.55,108.84c-3.91,31.65,6.65,61.41,50,76.12l.08.09a78.91,78.91,0,0,0,2.71,9c.75,2.22,1.43,4.34,2.28,6.27l2.28,5.44c.28.56.56,1.09.82,1.65-2.31.87-4.59,1.85-6.85,2.84a152.14,152.14,0,0,0-62-13,154,154,0,0,0-51.73,8.91,18.72,18.72,0,0,0-12.32,17.67V224a120.72,120.72,0,0,0,.79,14,7.17,7.17,0,0,1,1.41-1,130.25,130.25,0,0,1,96.34-11.06c-.68.48-1.33,1-2,1.49-.87.66-1.77,1.31-2.62,2-1.09.85-2.16,1.71-3.22,2.58-.83.7-1.68,1.37-2.5,2.06-1.05.92-2.1,1.85-3.13,2.78-.78.72-1.57,1.41-2.35,2.15-1.07,1-2.1,2-3.13,3.08-.82.81-1.65,1.6-2.45,2.46h0c-.94-.12-1.88-.22-2.85-.3l-.31,0c-1.47-.14-2.92-.22-4.41-.3l-1.07-.06c-1.47-.06-3-.1-4.45-.1s-3.18.06-4.77.12c-.48,0-1,.07-1.5.08-1,0-2.09.11-3.13.22l-1.78.18c-1.13.12-2.24.26-3.38.4-.58.1-1.19.14-1.79.29-1.36.34-2.75.46-4.13.68-.25,0-.5.1-.77.16-1.29.26-2.56.54-3.83.83-.52.12-1,.27-1.53.39l-2.61.68c-.67.22-1.34.39-2,.6-1.12.34-2.21.7-3.3,1.07l-1.17.38c-1.45.52-2.88,1.05-4.31,1.63-.36.14-.69.3-1,.44-1.09.45-2.19.93-3.26,1.4l-1.33.62-3,1.47-1.41.73c-1.09.58-2.18,1.2-3.27,1.81-.26.16-.54.3-.8.46l0,0a6.25,6.25,0,0,0-2.77,7.51A122.9,122.9,0,0,0,147,283.76a2.88,2.88,0,0,1,.33-.28l0,0a5.27,5.27,0,0,1,.46-.31c.83-.6,1.67-1.17,2.52-1.75.34-.22.68-.42,1-.64.72-.45,1.43-.89,2.15-1.31l1-.63c.81-.48,1.65-.93,2.5-1.37.22-.12.44-.26.66-.36,1.05-.55,2.12-1.07,3.21-1.59l.9-.39c.79-.36,1.61-.72,2.44-1.06l.55-.22c.77-.31,2-.82,2.83-1.09l1.15-.41c1.13-.38,2.28-.76,3.43-1.1l.3-.1c1.05-.29,2.1-.59,3.18-.85.37-.1.73-.18,1.11-.26.83-.2,1.67-.37,2.5-.55.4-.08.77-.16,1.17-.22.93-.18,1.89-.34,2.82-.5l1.67-.25c.9-.14,1.81-.24,2.72-.3l.89-.06c.64-.06,1.29-.1,1.93-.14-.93,1.43-1.83,2.9-2.7,4.37-.32.53-.62,1.07-1,1.6a47.15,47.15,0,0,0-2.36,4.15l-.53,1.07c-1,1.84-1.91,3.71-2.81,5.61-.16.35-.34.71-.52,1.09-.87,1.86-1.71,3.77-2.52,5.7-.14.37-.3.73-.44,1.11-.83,2-1.63,4-2.36,6.05-.56,1.57-1.09,3.14-1.61,4.71-.16.5-.3,1-.46,1.47-.33,1.09-.67,2.18-1,3.29-.18.6-.34,1.22-.5,1.81l-1.3,4.66a126.07,126.07,0,0,0,21.34,16.59v-.08c.14-.9.28-1.81.44-2.7.09-.5.18-1,.25-1.49a11.78,11.78,0,0,1,.58-2.95,5,5,0,0,0,.16-.67c.28-1.27.57-2.54.89-3.81.1-.38.2-.75.3-1.15.24-.89.48-1.79.71-2.68.14-.44.26-.87.38-1.31.26-.87.54-1.75.82-2.62.12-.4.23-.8.35-1.17.42-1.25.84-2.49,1.27-3.72.7-1.9,1.43-3.81,2.21-5.67a128.5,128.5,0,0,1,22.43-35.92c1.43-1.63,2.9-3.22,4.39-4.77a129.29,129.29,0,0,1,30.52-23.25c.79-.44,1.63-.83,2.42-1.25,1.11-.58,2.19-1.17,3.32-1.71a129.81,129.81,0,0,1,119.43,3.12,2.9,2.9,0,0,1,.55.36A122.72,122.72,0,0,0,384,224ZM374,258.35c-.3-.16-.59-.32-.89-.5-1.05-.61-2.13-1.19-3.2-1.77-.46-.25-.93-.48-1.39-.71-.95-.48-2.52-1.24-3.48-1.7-.29-.14-.57-.28-.87-.41-1.07-.47-2.16-.95-3.25-1.4-.36-.14-.7-.3-1-.44-1.43-.58-2.88-1.11-4.32-1.63l-1.16-.38c-1.09-.37-2.2-.73-3.29-1.07l-1.56-.46c-1-.32-2.08-.59-3.13-.84l-1.47-.37c-1.27-.29-2.56-.57-3.85-.83-.23-.06-.47-.12-.7-.16-1.45-.24-2.91-.37-4.34-.71-.52-.13-1.09-.16-1.63-.26-1.13-.14-2.24-.28-3.38-.4l-1.66-.16c-1-.12-2.08-.2-3.13-.23-.55,0-1.07-.06-1.62-.09-1.59-.06-3.18-.12-4.76-.12a105.71,105.71,0,0,0-19.8,1.85,107.4,107.4,0,0,0-80.3,66.85c-.55,1.41-1,2.84-1.52,4.27-.16.46-.3.92-.46,1.37-.32,1-.62,2-.91,3-.16.54-.3,1.05-.44,1.59-.28.95-.52,1.93-.76,2.9-.11.51-.25,1-.37,1.55-.24,1.11-.48,2.24-.7,3.37-.08.34-.16.7-.22,1.05-.27,1.47-.51,3-.71,4.45-.06.38-.1.76-.14,1.15-.19,1.55-.39,3.14-.53,4.66l0,.05a124.4,124.4,0,0,0,23,6.32l.83-.74c0-.91.07-1.82.12-2.7.06-.6.08-1.17.14-1.77s.16-1.35.24-2,.12-1.16.2-1.73.21-1.35.33-2,.18-1.11.28-1.66.28-1.39.44-2.07.22-1.07.34-1.61c.17-.71.35-1.41.55-2.12.12-.5.24-1,.38-1.49.24-.8.47-1.57.73-2.36.12-.4.24-.82.38-1.23.4-1.18.81-2.37,1.27-3.54a83.05,83.05,0,0,1,77.64-53.27c1.27,0,2.54,0,3.79.08l1.23.08c.85.06,1.71.1,2.56.18.48,0,.95.1,1.43.16.77.07,1.55.17,2.32.27.5.06,1,.14,1.49.22.76.12,1.51.24,2.29.38l1.42.28q1.2.24,2.37.51l1.29.3c1,.24,1.92.52,2.88.78l.71.19c1.19.36,2.36.74,3.54,1.16.33.09.65.23,1,.35.83.3,1.67.62,2.5.94l1.27.53c.72.3,1.45.62,2.17.94.43.19.87.41,1.33.61l2,1c.44.24.87.46,1.31.68.7.38,1.39.75,2.07,1.15.41.22.81.46,1.21.68.77.45,1.53.93,2.3,1.42.28.18.58.36.87.56,1.06.68,2.09,1.39,3.1,2.11.18.13.34.27.52.39a122.94,122.94,0,0,0,7.92-17.84,6.32,6.32,0,0,0-2.75-7.55Zm-18,43.42c-.28-.22-.55-.42-.83-.61-.74-.52-1.47-1-2.23-1.51-.21-.14-.39-.28-.61-.4-.93-.6-1.91-1.15-2.88-1.71l-.7-.36c-.79-.41-1.56-.83-2.36-1.21-.32-.16-.61-.29-.93-.43-.89-.42-1.79-.8-2.7-1.17l-.72-.31c-.81-.35-2.32-.85-3.17-1.11-.18-.06-.36-.12-.56-.17-.83-.26-1.67-.52-2.52-.74-.32-.1-.64-.18-1-.26-1.12-.27-2.23-.53-3.34-.75a62.21,62.21,0,0,0-11.61-1.11,61,61,0,0,0-61,60.08,124.49,124.49,0,0,0,24.22-2.5c0-.46.1-.9.16-1.35,0-.12,0-.24,0-.36.14-1,.32-2,.54-2.92a3.77,3.77,0,0,1,.1-.43c.22-.94.47-1.87.77-2.8,0-.14.1-.3.14-.46.32-.91.66-1.81,1-2.7.06-.14.12-.28.18-.44.4-.87.82-1.75,1.29-2.6.06-.14.14-.26.2-.38.48-.87,1-1.72,1.55-2.54l.2-.3c.57-.85,1.19-1.66,1.83-2.48a1.83,1.83,0,0,1,.13-.16c.7-.83,1.41-1.64,2.17-2.42A37,37,0,0,1,327,314.68a29.65,29.65,0,0,1,3,.71l.54.14c.95.28,1.86.6,2.78,1,.18.06.34.14.51.2.94.38,1.85.8,2.76,1.23l.32.18c.94.5,1.87,1,2.78,1.59l0,0a.37.37,0,0,1,.14.12,125.58,125.58,0,0,0,17-17.65,2.77,2.77,0,0,1-.72-.38Z" transform="translate(-116.04 0)"/><path class="cls-1" d="M237.74,190.51a2.15,2.15,0,0,0,.4-4c-19.78-10.1-32.55-24.76-38-43.78a74.48,74.48,0,0,1-1.89-8.9c-16.83-5-33.21-8.76-46.34-11.35-17.27-3.46-28.93-5-28.93-5s11.72,1,29.14,3.78c12.91,2,29,5,45.64,9.18A104.58,104.58,0,0,1,199.66,98a2.74,2.74,0,0,0-2.82-3.33c-33,2.1-66.7,14.67-79.1,19.73a2.73,2.73,0,0,0-.43,4.84,176.33,176.33,0,0,1,23.33,18.16C167.08,161.51,201.13,201.54,237.74,190.51Z" transform="translate(-116.04 0)"/></svg>