<svg id="Layer_1" data-name="Layer 1" xmlns="http://www.w3.org/2000/svg" viewBox="0 0 220.58 317.14"><defs><style>.cls-1,.cls-2{fill:#fff;}.cls-2{font-size:49.59px;font-family:Calibri-Bold, Calibri;font-weight:700;}</style></defs><path class="cls-1" d="M340.84,168.22a12.68,12.68,0,0,0-8.34-12A105,105,0,0,0,267,154.68a2.25,2.25,0,0,1-2.64-1.05l0,0-1.57-3.36c-.59-1.2-1.08-2.55-1.62-3.93s-1.1-2.89-1.59-4.47-1.06-3.22-1.5-5-1-3.53-1.36-5.4-.87-3.78-1.2-5.76-.73-4-1-6.09a232,232,0,0,1-2.33-26.27c-.12-3.49-.19-7-.19-10.46,0-14.38.86-28.24,1.91-39.1,1.22-12.66,2.59-21.32,2.76-22.34-.13,1-1.25,9.72-2.07,22.41-.73,10.86-1.18,24.65-.73,39,.11,3.51.29,7.06.52,10.62a227.57,227.57,0,0,0,3.13,26.18c.37,2.07.76,4.09,1.21,6s.88,3.88,1.38,5.73,1,3.63,1.53,5.36c.15.55.33,1.09.5,1.61a2.37,2.37,0,0,0,3.27,1.4C291.54,127.44,296,109.64,292,91.05c-4-18.18-16.08-37.15-24.07-52.58a137.13,137.13,0,0,1-8.64-20.34,2.49,2.49,0,0,0-4.34-.71c-8.22,10.91-30.71,43.09-34.38,72.82-2.66,21.46,4.51,41.64,33.92,51.62l.06.06a52.64,52.64,0,0,0,1.83,6.12c.51,1.51,1,3,1.55,4.26s1.06,2.54,1.55,3.69c.19.37.38.74.55,1.11-1.56.6-3.11,1.26-4.64,1.93a103.18,103.18,0,0,0-42-8.83,104.45,104.45,0,0,0-35.08,6,12.7,12.7,0,0,0-8.36,12v.09a83.21,83.21,0,0,0,.54,9.52,5,5,0,0,1,1-.68,88.36,88.36,0,0,1,65.33-7.5c-.46.33-.9.68-1.35,1s-1.19.89-1.77,1.34c-.74.58-1.47,1.15-2.18,1.75s-1.15.93-1.7,1.4c-.72.62-1.43,1.25-2.13,1.88-.52.49-1.06,1-1.59,1.46-.72.67-1.43,1.38-2.13,2.08s-1.11,1.09-1.65,1.67h0c-.64-.09-1.28-.15-1.93-.21a1.66,1.66,0,0,1-.22,0c-1-.09-2-.14-3-.2l-.72,0c-1,0-2-.07-3-.07s-2.15,0-3.23.09l-1,.05c-.71,0-1.42.07-2.12.15-.42,0-.81.07-1.21.12-.77.08-1.52.17-2.29.27-.39.07-.81.09-1.22.2-.92.23-1.86.31-2.8.45l-.52.12c-.87.17-1.73.36-2.59.56-.36.08-.7.18-1,.26l-1.77.46c-.46.15-.91.27-1.37.41-.75.23-1.49.47-2.23.73l-.8.25c-1,.35-2,.72-2.92,1.11l-.7.29c-.74.31-1.48.64-2.21,1l-.9.42-2,1-.95.49c-.74.39-1.48.81-2.22,1.23l-.54.31,0,0a4.24,4.24,0,0,0-1.88,5.08,83.43,83.43,0,0,0,5.38,12.13l.23-.19h0a1.69,1.69,0,0,1,.31-.21c.57-.41,1.13-.8,1.71-1.19l.69-.43c.48-.31,1-.61,1.45-.89.23-.15.47-.28.71-.43.56-.32,1.12-.63,1.7-.93l.45-.24c.71-.38,1.44-.73,2.18-1.08l.6-.27c.54-.24,1.09-.48,1.66-.71l.37-.16c.52-.21,1.38-.55,1.92-.73l.78-.28c.77-.26,1.55-.51,2.33-.74l.2-.07c.71-.2,1.43-.4,2.15-.58.26-.07.5-.12.76-.17.56-.14,1.13-.26,1.69-.38.27-.06.53-.11.8-.15l1.91-.34,1.13-.17c.62-.09,1.23-.16,1.85-.2l.6,0,1.31-.1c-.63,1-1.24,2-1.83,3-.22.37-.42.73-.64,1.09-.57.92-1.13,1.84-1.61,2.82l-.35.72c-.67,1.25-1.3,2.52-1.91,3.8-.11.25-.23.49-.35.74-.6,1.27-1.16,2.56-1.71,3.87-.1.25-.21.5-.3.75-.56,1.36-1.1,2.72-1.6,4.11-.38,1.06-.74,2.13-1.09,3.19-.11.34-.2.67-.31,1-.23.74-.46,1.48-.68,2.23-.12.41-.22.82-.33,1.23l-.89,3.15a85,85,0,0,0,14.47,11.25V241c.1-.61.19-1.23.3-1.83.06-.34.13-.67.17-1a8.43,8.43,0,0,1,.39-2,2.46,2.46,0,0,0,.11-.45c.19-.86.39-1.72.61-2.59.07-.25.13-.51.2-.78.16-.6.32-1.21.49-1.82.09-.29.17-.59.25-.88.18-.6.37-1.19.55-1.78.08-.27.17-.54.25-.8.28-.84.56-1.68.86-2.51.47-1.3,1-2.59,1.49-3.85a87.25,87.25,0,0,1,15.22-24.36c1-1.11,2-2.18,3-3.23a87.17,87.17,0,0,1,20.7-15.77c.54-.3,1.1-.57,1.64-.85.76-.39,1.48-.79,2.25-1.16a88,88,0,0,1,81,2.12,1.52,1.52,0,0,1,.38.24,83.86,83.86,0,0,0,.52-9.41Zm-6.74,23.41-.61-.34c-.71-.42-1.44-.81-2.17-1.2-.31-.17-.63-.32-.94-.48-.65-.33-1.71-.84-2.36-1.16l-.59-.27c-.72-.32-1.47-.65-2.21-1l-.7-.29c-1-.39-1.95-.76-2.93-1.11l-.78-.25c-.74-.26-1.5-.5-2.24-.73l-1.05-.31c-.7-.22-1.41-.4-2.13-.57l-1-.25c-.86-.2-1.74-.39-2.61-.56l-.48-.11c-1-.17-2-.25-2.94-.49-.36-.08-.74-.11-1.11-.17-.77-.1-1.52-.19-2.29-.27l-1.12-.11c-.71-.08-1.42-.14-2.13-.16l-1.1-.05c-1.07,0-2.15-.09-3.23-.09A71.14,71.14,0,0,0,284,183a72.81,72.81,0,0,0-54.45,45.33c-.38,1-.72,1.93-1,2.9-.11.31-.2.62-.31.93-.22.67-.42,1.34-.62,2-.11.36-.2.71-.3,1.07-.18.65-.35,1.31-.51,2-.08.35-.17.7-.25,1-.16.75-.33,1.52-.47,2.29-.06.23-.11.47-.15.71-.19,1-.35,2-.49,3,0,.25-.06.51-.09.78-.13,1.05-.26,2.13-.36,3.16l0,0a85.25,85.25,0,0,0,15.57,4.29l.56-.51c0-.61,0-1.23.08-1.83,0-.4.06-.79.1-1.2s.11-.91.16-1.36.08-.78.13-1.17.15-.91.23-1.37.12-.75.19-1.13.19-.94.3-1.4.15-.73.23-1.09.24-1,.37-1.44.17-.68.26-1c.16-.54.32-1.07.5-1.61.08-.26.16-.55.25-.83.27-.79.56-1.6.87-2.4A56.25,56.25,0,0,1,297.39,198c.86,0,1.73,0,2.57.05l.84,0c.58.05,1.16.07,1.74.13.32,0,.64.06,1,.1l1.57.19c.34,0,.67.1,1,.15.51.08,1,.16,1.55.26l1,.18,1.6.35.88.21c.66.16,1.3.35,2,.52a4.34,4.34,0,0,0,.48.14c.81.24,1.61.49,2.4.78.23.06.44.16.67.24.57.2,1.13.42,1.7.63l.86.37,1.47.63c.3.13.59.28.9.42l1.39.68c.29.16.59.31.89.46.47.26.94.51,1.4.78l.82.46c.52.31,1,.63,1.56,1,.19.12.39.24.59.38.72.45,1.42.94,2.1,1.42a4.11,4.11,0,0,0,.35.27A83.44,83.44,0,0,0,336,196.77a4.28,4.28,0,0,0-1.87-5.12Zm-12.22,29.45c-.18-.15-.37-.29-.56-.42-.5-.35-1-.7-1.51-1-.15-.09-.27-.18-.42-.26-.63-.41-1.29-.79-1.95-1.16L317,218c-.54-.29-1.06-.57-1.6-.83l-.63-.29c-.61-.29-1.22-.54-1.84-.8l-.48-.21c-.55-.23-1.58-.57-2.15-.75l-.38-.11c-.57-.18-1.13-.35-1.71-.5l-.65-.18c-.75-.19-1.51-.36-2.26-.51a41.82,41.82,0,0,0-7.88-.75A41.4,41.4,0,0,0,256,253.78a84.51,84.51,0,0,0,16.42-1.7c0-.3.07-.6.11-.91a2,2,0,0,1,0-.24q.14-1,.36-2a1.84,1.84,0,0,1,.07-.3c.15-.63.32-1.26.52-1.9,0-.09.07-.2.1-.31.21-.62.44-1.22.7-1.83l.12-.29c.27-.6.55-1.19.87-1.77,0-.09.1-.17.14-.25a17.69,17.69,0,0,1,1.05-1.73l.13-.2c.39-.58.81-1.13,1.24-1.68l.1-.11c.47-.57.95-1.12,1.46-1.64a24.84,24.84,0,0,1,17.95-7.57,25.1,25.1,0,0,1,4.8.46,20,20,0,0,1,2,.48l.37.1c.64.19,1.26.4,1.88.64l.35.14c.63.25,1.25.54,1.87.83l.22.12c.63.34,1.26.69,1.88,1.08h0a.57.57,0,0,1,.09.08,84.24,84.24,0,0,0,11.53-12,1.62,1.62,0,0,1-.49-.25Z" transform="translate(-139.71 -16.43)"/><path class="cls-1" d="M241.69,145.62a1.45,1.45,0,0,0,.27-2.69c-13.42-6.85-22.08-16.8-25.78-29.7a50.85,50.85,0,0,1-1.28-6c-11.41-3.37-22.52-5.94-31.43-7.7-11.71-2.34-19.61-3.35-19.61-3.35s7.94.69,19.76,2.56c8.75,1.37,19.64,3.41,30.94,6.22a71.14,71.14,0,0,1,1.31-22A1.87,1.87,0,0,0,214,80.64c-22.4,1.42-45.23,10-53.64,13.38A1.85,1.85,0,0,0,160,97.3a118.9,118.9,0,0,1,15.82,12.31C193.77,126,216.86,153.1,241.69,145.62Z" transform="translate(-139.71 -16.43)"/><text class="cls-2" transform="translate(0 299.82)">NutriDripp</text></svg>